/* XPM */
static char *diedmumm1757355334[] = {
/* columns rows colors chars-per-pixel */
"128 128 7 1 ",
"  c black",
". c #555566",
"X c #666677",
"o c #888899",
"O c #AAAABB",
"+ c #CCCCDD",
"@ c white",
/* pixels */
"                                                                                                                                ",
"                                                                                                                                ",
"                                                                                                                                ",
"                                                                                                                                ",
"                                                                                                                                ",
"                                                                                                                                ",
"                                                                                                                                ",
"                                                                                                                                ",
"                                                                                                                                ",
"                                                                                                                                ",
"                                                                                                                                ",
"                                                                                                                                ",
"                                                                                                                                ",
"                                                                                                                                ",
"                                                                                                                                ",
"                                                                                                                                ",
"                                                                                                                                ",
"                                                                                                                                ",
"                                                                                                                                ",
"                                                                                                                                ",
"                                                                                                                                ",
"                                                                                                                                ",
"                                                                                                                                ",
"                                                                                                                                ",
"                                                                                                                                ",
"                                                                                                                                ",
"                                                                                                                                ",
"                                                                                                                                ",
"                                                                                                                                ",
"                                                                                                                                ",
"                                                                                                                                ",
"                                                                                                                                ",
"                                                                                                                                ",
"                                                                                                                                ",
"                                                                                                                                ",
"                                                                                                                                ",
"                                                                                                                                ",
"                                                                                                                                ",
"                                                                                                                                ",
"                                                                                                                                ",
"                                                                                                                                ",
"                                                                                                                                ",
"                                                                                                                                ",
"                                                                                                                                ",
"                                                                                                                                ",
"                                                                                                                                ",
"                                                                                                                                ",
"                                                                                                                                ",
"                                                                                                                                ",
"                                                                                                                                ",
"                                                                                                                                ",
"                                                                                                                                ",
"                                                                                                                                ",
"                                                                                                                                ",
"                                                                                                                                ",
"                                                                                                                                ",
"                                                                                                                                ",
"                                                                                                                                ",
"                                                                                                                                ",
"                                                                                                                                ",
"                                                                                                                                ",
"                                                                                                                                ",
"                                                                                                                                ",
"                                                                                                                                ",
"                                                                                                                                ",
"                                                                                                                                ",
"                                                                                                                                ",
"                                                                                                                                ",
"                                                                                                                                ",
"                                                                                                                                ",
"                                                                                                                                ",
"                                                                                                                                ",
"                                                                                                                                ",
"                                                                                                                                ",
"                                                                                                                                ",
"                                                                                                                                ",
"                                                                                                                                ",
"                                                                                                                                ",
"                                                                                                                                ",
"                                                                                                                                ",
"                                                                                                                                ",
"                                                                                                                                ",
"                                                                                                                                ",
"                                                                                                                                ",
"                                                                                                                                ",
"                                                                                                                                ",
"                                                                                                                                ",
"                                                                                                                                ",
"                                                                                                                                ",
"                                                                                                                                ",
"                                                                                                                                ",
"                                                                                                                                ",
"                                                                                                                                ",
"                                                                                                                                ",
"                                                                                                                                ",
"                                                                                                                                ",
"                                                                                                                                ",
"                                                                                                                                ",
"                                                                                                                                ",
"                                                                                                                                ",
"                                                                                                                                ",
"                                                                                                                                ",
"                                                                                                                                ",
"                                                                                                                                ",
"                                                                                                                                ",
"                                                                                                                                ",
"                                                                                                                                ",
"                                                                                                                                ",
"                                                                                                                                ",
"                                                                                                                                ",
"                                                                                                                                ",
"                                                                                                                                ",
"                                                                                                                                ",
"                                                                                                                                ",
"                                  XXXXXX                                                                                        ",
"                                  XXXXXX                                                                                        ",
"                    XXXX      XXoooo..OOooXX              XXXXXX  XXXXXXXX    XXOOoooo..    ..XXXX                              ",
"                    XXXX      XXoooo..OOooXX              XXXXXX  XXXXXXXX    XXOOoooo..    ..XXXX                              ",
"                XXooOO..oo..oo....XX......XXoo..ooXXXX....XXOOOO++XX..oooo..ooooOOXX..XXoo..oo..XX++ooooXX..                    ",
"                XXooOO..oo..oo....XX......XXoo..ooXXXX....XXOOOO++XX..oooo..ooooOOXX..XXoo..oo..XX++ooooXX..                    ",
"              XX@@OOOOoo....OOXX..OOooOO++XX++XXooXXOOOO..XXXX..XX++XXOOOOOO..XX..XX..XXoo..OO@@@@XXXX....XXXX....XXXX          ",
"              XX@@OOOOoo....OOXX..OOooOO++XX++XXooXXOOOO..XXXX..XX++XXOOOOOO..XX..XX..XXoo..OO@@@@XXXX....XXXX....XXXX          ",
"          XX@@OOXXOOooXXXX@@XXXX++@@XX@@XX++++..OO@@XX..oo@@++XX....XXXXOOXX++OO....OO@@OOXXOOXXOO++OOXX..++OOXX@@++..ooooXX    ",
"          XX@@OOXXOOooXXXX@@XXXX++@@XX@@XX++++..OO@@XX..oo@@++XX....XXXXOOXX++OO....OO@@OOXXOOXXOO++OOXX..++OOXX@@++..ooooXX    ",
"  XXXXooOOOO..oo++oooo..OOXXoo..OOOOooOOXXXXXXooOOXX....ooOOXX..XXooXXXX++@@oo..ooOOOOXX....oo++@@....XX++++XXOO++XX..++@@OOOOXX",
"  XXXXooOOOO..oo++oooo..OOXXoo..OOOOooOOXXXXXXooOOXX....ooOOXX..XXooXXXX++@@oo..ooOOOOXX....oo++@@....XX++++XXOO++XX..++@@OOOOXX",
"XXXXXX....XXXX........XX..XXXX....XXXXXX    XXXXXX..      XX..      XXXXXXXX..            XXXXXX    XXXX                        ",
"XXXXXX....XXXX........XX..XXXX....XXXXXX    XXXXXX..      XX..      XXXXXXXX..            XXXXXX    XXXX                        "
};
