/* XPM */
static char *mummy_r1757355334[] = {
/* columns rows colors chars-per-pixel */
"128 128 14 1 ",
"  c black",
". c #111111",
"X c #444455",
"o c #555566",
"O c #666677",
"+ c #886633",
"@ c #997744",
"# c #AA8855",
"$ c #CCAA77",
"% c #888899",
"& c #AAAABB",
"* c #EECC99",
"= c #CCCCDD",
"- c white",
/* pixels */
"                                                          &&&&&&%%                                                              ",
"                                                          &&&&&&%%                                                              ",
"                                                        &&------&&&&                                                            ",
"                                                        &&------&&&&                                                            ",
"                                                      OO%%&&&&&&%%%%OO                                                          ",
"                                                      OO%%&&&&&&%%%%OO                                                          ",
"                                                  %%OOOO%%======&&%%OO%%                                                        ",
"                                                  %%OOOO%%======&&%%OO%%                                                        ",
"                              %%&&======OO      &&&&OO....%%%%%%OO....&&&&%%    OO====%%oo..                                    ",
"                              %%&&======OO      &&&&OO....%%%%%%OO....&&&&%%    OO====%%oo..                                    ",
"                          %%%%&&====----==%%&&====OO%%..++......--++..OO======&&==--OOoo**@@..%%                                ",
"                          %%%%&&====----==%%&&====OO%%..++......--++..OO======&&==--OOoo**@@..%%                                ",
"                        %%&&&&&&%%====----==&&&&%%%%&&%%..OO%%OO....%%%%%%==&&&&----%%..$$%%&&&&%%%%                            ",
"                        %%&&&&&&%%====----==&&&&%%%%&&%%..OO%%OO....%%%%%%==&&&&----%%..$$%%&&&&%%%%                            ",
"                &&%%OOOOOO&&====&&%%&&==----%%&&%%%%%%&&&&======&&&&&&%%%%&&&&%%--==%%..%%====&&&&OOOO%%&&%%                    ",
"                &&%%OOOOOO&&====&&%%&&==----%%&&%%%%%%&&&&======&&&&&&%%%%&&&&%%--==%%..%%====&&&&OOOO%%&&%%                    ",
"        &&OO%%    ==OO%%--&&&&----&&&&======&&&&%%%%OOOO$$........$$OO%%==&&&&&&====%%&&&&--&&&&OO--%%==--OO  %%&&              ",
"        &&OO%%    ==OO%%--&&&&----&&&&======&&&&%%%%OOOO$$........$$OO%%==&&&&&&====%%&&&&--&&&&OO--%%==--OO  %%&&              ",
"        ==--OO%%OOOOOOOO%%OO%%%%&&&&%%%%==----==&&%%OOOO$$......##$$%%======--&&==%%%%%%&&%%%%OOOO%%OOOOOOOO%%OO==              ",
"        ==--OO%%OOOOOOOO%%OO%%%%&&&&%%%%==----==&&%%OOOO$$......##$$%%======--&&==%%%%%%&&%%%%OOOO%%OOOOOOOO%%OO==              ",
"        OOOOOOOOOOOO%%%%%%==--%%&&%%%%&&&&&&&&&&----==OOOOXXXXXX**OO&&oo....OO&&&&&&OO%%%%%%--==OO%%%%OOOOOOOOOOOO              ",
"        OOOOOOOOOOOO%%%%%%==--%%&&%%%%&&&&&&&&&&----==OOOOXXXXXX**OO&&oo....OO&&&&&&OO%%%%%%--==OO%%%%OOOOOOOOOOOO              ",
"        OO&&==%%OO%%====&&==&&OO%%OOOO&&========&&&&&&&&==OOOOOOOO==&&..........==&&OOOOOOOO&&==&&&&==%%OO%%%%==OO&&            ",
"        OO&&==%%OO%%====&&==&&OO%%OOOO&&========&&&&&&&&==OOOOOOOO==&&..........==&&OOOOOOOO&&==&&&&==%%OO%%%%==OO&&            ",
"        OO%%====%%&&====%%OOOO%%OOOOOO%%======----------==%%%%%%==....$$******$$..%%OOOOOO%%OOOOOO%%==&&%%&&====OO&&            ",
"        OO%%====%%&&====%%OOOO%%OOOOOO%%======----------==%%%%%%==....$$******$$..%%OOOOOO%%OOOOOO%%==&&%%&&====OO&&            ",
"            OOOOOOOO%%%%%%%%%%        OO%%========--========&&--..@@##****XX**##......      %%%%OOoo..OOOOOOOOOO==              ",
"            OOOOOOOO%%%%%%%%%%        OO%%========--========&&--..@@##****XX**##......      %%%%OOoo..OOOOOOOOOO==              ",
"              OO%%%%%%%%OOOO          OO&&&&..&&%%--------==&&--............@@XX$$..%%        OOoo..@@@@....OO  ==              ",
"              OO%%%%%%%%OOOO          OO&&&&..&&%%--------==&&--............@@XX$$..%%        OOoo..@@@@....OO  ==              ",
"                OOOOOO  %%%%          &&........==&&==------&&&&==@@##**XX$$##......                OO....OO&&  &&==            ",
"                OOOOOO  %%%%          &&........==&&==------&&&&==@@##**XX$$##......                OO....OO&&  &&==            ",
"                        %%%%          %%..##$$##%%&&==============........**XX**..%%                      %%&&    ==            ",
"                        %%%%          %%..##$$##%%&&==============........**XX**..%%                      %%&&    ==            ",
"                        &&%%          %%##$$..&&%%------&&&&&&&&&&--@@####........====                    %%&&    ==            ",
"                        &&%%          %%##$$..&&%%------&&&&&&&&&&--@@####........====                    %%&&    ==            ",
"                        &&            &&......--%%&&==&&%%======%%&&--..@@$$$$$$======                    %%%%    ==            ",
"                        &&            &&......--%%&&==&&%%======%%&&--..@@$$$$$$======                    %%%%    ==            ",
"                                      ==  ==%%%%%%&&OO%%%%========OO--==--%%&&==    &&                    %%                    ",
"                                      ==  ==%%%%%%&&OO%%%%========OO--==--%%&&==    &&                    %%                    ",
"                                      &&  ==  OO%%OO%%%%==------&&%%&&&&--OOOO      &&                                          ",
"                                      &&  ==  OO%%OO%%%%==------&&%%&&&&--OOOO      &&                                          ",
"                                          &&    OOOOOOOOOO%%%%====&&OOOO&&                                                      ",
"                                          &&    OOOOOOOOOO%%%%====&&OOOO&&                                                      ",
"                                                  OOOO%%&&==%%&&%%%%%%oo&&                                                      ",
"                                                  OOOO%%&&==%%&&%%%%%%oo&&                                                      ",
"                                                    OO%%&&------==&&%%                                                          ",
"                                                    OO%%&&------==&&%%                                                          ",
"                                            OO%%==&&OO%%%%%%%%&&&&%%%%%%&&==&&OO                                                ",
"                                            OO%%==&&OO%%%%%%%%&&&&%%%%%%&&==&&OO                                                ",
"                                          OO%%%%%%%%%%%%%%====%%%%%%%%%%&&&&==&&                                                ",
"                                          OO%%%%%%%%%%%%%%====%%%%%%%%%%&&&&==&&                                                ",
"                                          OO&&--&&&&%%%%%%&&&&&&%%%%&&&&&&----==                                                ",
"                                          OO&&--&&&&%%%%%%&&&&&&%%%%&&&&&&----==                                                ",
"                                          OO&&==--==&&&&&&%%%%%%&&&&&&&&==----&&                                                ",
"                                          OO&&==--==&&&&&&%%%%%%&&&&&&&&==----&&                                                ",
"                                            OO%%==--====&&==&&&&%%%%%%&&&&&&%%OO                                                ",
"                                            OO%%==--====&&==&&&&%%%%%%&&&&&&%%OO                                                ",
"                                          OO%%%%%%%%%%&&====&&%%&&==&&&&==&&%%OO                                                ",
"                                          OO%%%%%%%%%%&&====&&%%&&==&&&&==&&%%OO                                                ",
"                                        OO%%&&==&&%%%%%%&&======&&%%%%==--==%%                                                  ",
"                                        OO%%&&==&&%%%%%%&&======&&%%%%==--==%%                                                  ",
"                                        OO&&==--==&&%%OOOO%%==&&OO%%&&--&&----==                                                ",
"                                        OO&&==--==&&%%OOOO%%==&&OO%%&&--&&----==                                                ",
"                                      OO%%&&&&%%====%%OOOO      OO%%%%==&&--..##&&                                              ",
"                                      OO%%&&&&%%====%%OOOO      OO%%%%==&&--..##&&                                              ",
"                                      %%&&==--==%%&&%%OO        OOOO&&--&&--..**%%                                              ",
"                                      %%&&==--==%%&&%%OO        OOOO&&--&&--..**%%                                              ",
"                                      &&==----==%%%%OOOO          OO%%==&&--&&..OO                                              ",
"                                      &&==----==%%%%OOOO          OO%%==&&--&&..OO                                              ",
"                                      ==----==%%&&OO%%              OO&&--&&--....OO                                            ",
"                                      ==----==%%&&OO%%              OO&&--&&--....OO                                            ",
"                                    OO----======%%OO%%              OO%%==--&&--..OOOO                                          ",
"                                    OO----======%%OO%%              OO%%==--&&--..OOOO                                          ",
"                                    OO%%%%==&&&&OOOO&&                %%==&&&&--..OOOO                                          ",
"                                    OO%%%%==&&&&OOOO&&                %%==&&&&--..OOOO                                          ",
"                                OO&&&&====%%%%%%OOOO&&                OO%%&&--==--OOOOOO                                        ",
"                                OO&&&&====%%%%%%OOOO&&                OO%%&&--==--OOOOOO                                        ",
"                              %%------&&%%==%%%%OO%%&&                OOOO&&&&%%&&----&&OO                                      ",
"                              %%------&&%%==%%%%OO%%&&                OOOO&&&&%%&&----&&OO                                      ",
"                            %%--------==%%%%OOOOOO  %%                  OOOO%%&&--------==                                      ",
"                            %%--------==%%%%OOOOOO  %%                  OOOO%%&&--------==                                      ",
"                            %%&&======%%%%%%OOOO                        OOOO%%&&==========                                      ",
"                            %%&&======%%%%%%OOOO                        OOOO%%&&==========                                      ",
"                              OO%%====%%&&%%OOOO                        OO%%%%&&&&====&&&&                                      ",
"                              OO%%====%%&&%%OOOO                        OO%%%%&&&&====&&&&                                      ",
"                                OO%%==&&&&%%OOOO                        OO%%====%%%%%%OO                                        ",
"                                OO%%==&&&&%%OOOO                        OO%%====%%%%%%OO                                        ",
"                                OO%%&&----==%%OO                      OO&&%%&&==&&OOOO                                          ",
"                                OO%%&&----==%%OO                      OO&&%%&&==&&OOOO                                          ",
"                                %%%%--$$##..==&&OO                  OO%%%%&&----==%%OO                                          ",
"                                %%%%--$$##..==&&OO                  OO%%%%&&----==%%OO                                          ",
"                                %%==--##$$....==OO                  %%&&%%%%&&--&&OO                                            ",
"                                %%==--##$$....==OO                  %%&&%%%%&&--&&OO                                            ",
"                                %%%%--##**##..==OO                %%&&&&====&&&&%%%%                                            ",
"                                %%%%--##**##..==OO                %%&&&&====&&&&%%%%                                            ",
"                                %%%%--..**##..==OO                &&%%OO==------&&OO                                            ",
"                                %%%%--..**##..==OO                &&%%OO==------&&OO                                            ",
"                                OO%%--..$$$$..==OO                &&%%OO%%==----%%OO                                            ",
"                                OO%%--..$$$$..==OO                &&%%OO%%==----%%OO                                            ",
"                                  %%--==..##..==                  &&  OOOO%%%%%%OO                                              ",
"                                  %%--==..##..==                  &&  OOOO%%%%%%OO                                              ",
"                                    ==&&----==OO                      ====%%--&&                                                ",
"                                    ==&&----==OO                      ====%%--&&                                                ",
"                                      %%--%%==OO                      &&%%%%%%OO                                                ",
"                                      %%--%%==OO                      &&%%%%%%OO                                                ",
"                                      OO--&&&&OO                      OOOO&&==%%                                                ",
"                                      OO--&&&&OO                      OOOO&&==%%                                                ",
"                                      OO==&&%%OO                      OO%%&&==%%                                                ",
"                                      OO==&&%%OO                      OO%%&&==%%                                                ",
"                                      %%%%&&&&==                      OO&&==&&%%OO                                              ",
"                                      %%%%&&&&==                      OO&&==&&%%OO                                              ",
"                      OO%%======%%%%OO%%&&%%====                      OO%%%%&&&&%%OO                                            ",
"                      OO%%======%%%%OO%%&&%%====                      OO%%%%&&&&%%OO                                            ",
"                  OO%%%%==------======%%&&&&%%                        %%&&====--==&&%%OO                                        ",
"                  OO%%%%==------======%%&&&&%%                        %%&&====--==&&%%OO                                        ",
"                OOOOOOOOOOOO%%&&----==%%&&%%OOOO                      &&====----======&&%%                                      ",
"                OOOOOOOOOOOO%%&&----==%%&&%%OOOO                      &&====----======&&%%                                      ",
"                      OOOOOOOOOOOOOO&&%%====&&OO                      OOOOOOOOOOOOOOOOOOOO                                      ",
"                      OOOOOOOOOOOOOO&&%%====&&OO                      OOOOOOOOOOOOOOOOOOOO                                      ",
"                            OOOOOOOOOOOO&&&&&&&&                                                                                ",
"                            OOOOOOOOOOOO&&&&&&&&                                                                                ",
"                      ..................OOOOOOOO.....                                                                           ",
"                      ..................OOOOOOOO.....                                                                           ",
"                                                                                                                                ",
"                                                                                                                                ",
"                                                                                                                                ",
"                                                                                                                                "
};
