/* XPM */
static char *b8abbe8df7c54db88908f661e0e53653c7RY9DsKMVTGV95C[] = {
/* columns rows colors chars-per-pixel */
"64 64 119 2 ",
"   c #000000",
".  c #0B0100",
"X  c #070900",
"o  c #040609",
"O  c #130000",
"+  c #1C0000",
"@  c #240101",
"#  c #2B0001",
"$  c #340203",
"%  c #3A0104",
"&  c #301E1E",
"*  c #420002",
"=  c #4B0001",
"-  c #41020A",
";  c #480308",
":  c #460B0D",
">  c #560005",
",  c #5C0000",
"<  c #540A0F",
"1  c #5B0915",
"2  c #4F1315",
"3  c #660000",
"4  c #660806",
"5  c #660009",
"6  c #690408",
"7  c #740000",
"8  c #71030E",
"9  c #690716",
"0  c #621014",
"q  c #791B19",
"w  c #781824",
"e  c #59242A",
"r  c #792A26",
"t  c #74212C",
"y  c #7E242E",
"u  c #762C2D",
"i  c #7B292F",
"p  c #6C3028",
"a  c #7B2D31",
"s  c #7D363A",
"d  c #7F3641",
"f  c #83221C",
"g  c #8A1F2B",
"h  c #9B1B26",
"j  c #9B1E2C",
"k  c #A21420",
"l  c #AF1521",
"z  c #A21B22",
"x  c #AC162A",
"c  c #A51D2B",
"v  c #A91A29",
"b  c #B11226",
"n  c #BD1023",
"m  c #B21A27",
"M  c #B21C2D",
"N  c #8F212C",
"B  c #94232A",
"V  c #9F232E",
"C  c #90282F",
"Z  c #8F322D",
"A  c #822730",
"S  c #8D2433",
"D  c #8A2A35",
"F  c #8B2F3C",
"G  c #942433",
"H  c #9C2432",
"J  c #942933",
"K  c #9B2933",
"L  c #A52332",
"P  c #AE2334",
"I  c #B62134",
"U  c #A73238",
"Y  c #C4192C",
"T  c #C76F7D",
"R  c #FFA7A9",
"E  c #FFB2B0",
"W  c #D4D5D3",
"Q  c #D9D7DA",
"!  c #DCDBDD",
"~  c #FFC1C2",
"^  c #FFD5CC",
"/  c #FFC9D4",
"(  c #E1DCDD",
")  c #FFD1D2",
"_  c #FFDBD3",
"`  c #FFDBDA",
"'  c #FFE4DC",
"]  c #FFE6D8",
"[  c #DFDFE1",
"{  c #FFD5E0",
"}  c #E5E1E0",
"|  c #E6E4E7",
" . c #E7E3E4",
".. c #EEE2E4",
"X. c #FFE5E2",
"o. c #F7E8EB",
"O. c #FFF2E9",
"+. c #FCF3EA",
"@. c #FFF2EC",
"#. c #FFF0EE",
"$. c #FFF7EC",
"%. c #F2F0F3",
"&. c #F4F4F6",
"*. c #FFF5F5",
"=. c #FAF6F7",
"-. c #F9FAF6",
";. c #FAF4F8",
":. c #F7FDFB",
">. c #F6FFFC",
",. c #FEF8F8",
"<. c #FCFAFB",
"1. c #FAFFF9",
"2. c #FAFCFB",
"3. c #F9FAFC",
"4. c #FBFDFC",
"5. c #F9FFFF",
"6. c #FBFFFF",
"7. c #FFFEFF",
"8. c #FDFDFC",
/* pixels */
"                                                                                                                                ",
"                                                                                                                                ",
"                                                                                                                                ",
"                                                                                                                                ",
"                                                                                                                                ",
"                                                                                                                                ",
"                                                                                                                                ",
"                                                                                                                                ",
"                                                                                                                                ",
"                                                                                                                                ",
"                                                                                                                                ",
"                                                                                                                                ",
"                                                                                                                                ",
"                                                                                                                                ",
"                                                                                                                                ",
"                                                                                                                                ",
"                                                                                                                                ",
"                                                                                                                                ",
"                                                                                                                                ",
"                                                                                                                                ",
"                                                                                                                                ",
"                                                                                                                                ",
"                                                                                                                                ",
"                                                                                                                                ",
"                                                                                                                                ",
"                                                                                                                                ",
"                                                                                                                                ",
"                                                                                                                                ",
"                                                                                                                                ",
"                                                                                                                                ",
"                                                                                                                                ",
"                                                                                                                                ",
"                                                                                                                                ",
"                                                                                                                                ",
"                                                                                                                                ",
"                                                                                                                                ",
"                                                                                                                                ",
"                                                                                                                                ",
"                                                                                      . .                                       ",
"                                                                                        . .                                     ",
"                                                  o                                                                             ",
"                                                  o             . . . .   .                                                     ",
"                                                            . . O + + @ O . .                                                   ",
"                                                          X . @ : < ; % $ @ O .                                                 ",
"                                                  . .   X O.#.* K h H G J 1 # + .                                               ",
"                                                O O + #.$.O.` 5 c x L K G D d @ .                                               ",
"                                              . # e % ` ' ` 5 L c U ^ _ > D F / @ O .                                           ",
"                                              O - t i a p r c M x 3 ] ] ) 8 G 9 % + .                                           ",
"                                              . y B B 4 = Z m n b h ^ ^ 7 k I L D % .                                           ",
"                                              O w V B E ^ , l Y x j q f z m M j A % .                                           ",
"                                              O t g C R ~ 6 v x j N J B P P N 0 2 @ .                                           ",
"                                          .   . % < a u s a g S T { = F G D % X.+ .                                             ",
"                                                O @ + @ @ @ $ # @ + + @ # # + . .                                               ",
"                                                    . . . . & *.o.,.1.X . .                                                     ",
"                                          .                 } ( ;.8.>.:.  . .                                                   ",
"                                          .                 Q [ %.3.6.6.    .   . .                                             ",
"                                                            Q  .&.6.1.,.                                                        ",
"                                                        o   ( =.8.8.<.8.                                                        ",
"                                                      o X   ! 8...,.8.6.                                                        ",
"                                                        X   Q  .8.8.-.6.                                                        ",
"                                                o           X W -.8.8.                                                          ",
"                                                            o o         o                                                       ",
"                                                    o           o                                                               ",
"                                                      .           o         .                                                   "
};
