/* XPM */
static char *dad2578427bf4f92af1cf5365b543d79vCyBZLk7DP5xNbk5[] = {
/* columns rows colors chars-per-pixel */
"64 64 255 2 ",
"   c #020202",
".  c #0B0201",
"X  c #020A02",
"o  c #0C0A00",
"O  c #01030B",
"+  c #0B010B",
"@  c #000B0B",
"#  c #0C090B",
"$  c #130100",
"%  c #1B0100",
"&  c #130A00",
"*  c #180506",
"=  c #071402",
"-  c #181501",
";  c #010313",
":  c #000B13",
">  c #00031B",
",  c #000B1C",
"<  c #0C0218",
"1  c #170117",
"2  c #001518",
"3  c #230100",
"4  c #2B0000",
"5  c #260705",
"6  c #330000",
"7  c #3B0100",
"8  c #380905",
"9  c #241800",
"0  c #381A02",
"q  c #27011B",
"w  c #380E19",
"e  c #17270F",
"r  c #332E08",
"t  c #010728",
"y  c #031428",
"u  c #020B34",
"i  c #001636",
"p  c #17082B",
"a  c #300F2E",
"s  c #04282A",
"d  c #0D2B37",
"f  c #312A31",
"g  c #430101",
"h  c #490502",
"j  c #580301",
"k  c #561705",
"l  c #460117",
"z  c #4B140C",
"x  c #640401",
"c  c #71140C",
"v  c #492804",
"b  c #532F04",
"n  c #6E2C10",
"m  c #4D102F",
"M  c #53332E",
"N  c #712E30",
"B  c #6A0D2F",
"V  c #37491F",
"C  c #4E4B12",
"Z  c #6D4B0E",
"A  c #756917",
"S  c #575533",
"D  c #70502A",
"F  c #6F692B",
"G  c #0A1D4A",
"H  c #022747",
"J  c #133052",
"K  c #2D3550",
"L  c #183D77",
"P  c #133A67",
"I  c #263975",
"U  c #2D396A",
"Y  c #321C42",
"T  c #4F3052",
"R  c #6F3052",
"E  c #592869",
"W  c #57346A",
"Q  c #64286A",
"!  c #6B3367",
"~  c #5F1952",
"^  c #2C5054",
"/  c #18456A",
"(  c #174479",
")  c #104B77",
"_  c #3A5977",
"`  c #2B4C70",
"'  c #326770",
"]  c #194D57",
"[  c #4C5053",
"{  c #734C4F",
"}  c #747352",
"|  c #4D5073",
" . c #6F4E71",
".. c #4D6D74",
"X. c #67655F",
"o. c #993619",
"O. c #97320F",
"+. c #A33518",
"@. c #B43112",
"#. c #963926",
"$. c #8F312F",
"%. c #AD3A2C",
"&. c #8C1A17",
"*. c #C93619",
"=. c #D22E13",
"-. c #E32B10",
";. c #C83826",
":. c #D93C37",
">. c #D1392E",
",. c #E33931",
"<. c #E6362B",
"1. c #8F5013",
"2. c #AB4F13",
"3. c #8A7311",
"4. c #B97B04",
"5. c #B8761A",
"6. c #AE6D16",
"7. c #904D30",
"8. c #B84636",
"9. c #AE4E2D",
"0. c #906C33",
"q. c #BA7726",
"w. c #B67838",
"e. c #A9742E",
"r. c #D45311",
"t. c #E54E08",
"y. c #C57708",
"u. c #D87A06",
"i. c #C47715",
"p. c #D97A19",
"a. c #CE6E08",
"s. c #E67706",
"d. c #E4760F",
"f. c #C74436",
"g. c #CE4F29",
"h. c #CA782F",
"j. c #E87D35",
"k. c #8A3356",
"l. c #8D386A",
"z. c #A83D59",
"x. c #CD3D42",
"c. c #90484E",
"v. c #B94949",
"b. c #AA4C50",
"n. c #956E4E",
"m. c #AF6F49",
"M. c #914A6B",
"N. c #AC4F79",
"B. c #916672",
"V. c #C74545",
"C. c #DB4342",
"Z. c #C77B4A",
"A. c #738861",
"S. c #B68909",
"D. c #B4B513",
"F. c #AA8C31",
"G. c #BCB138",
"H. c #B3AD34",
"J. c #9A9C2B",
"K. c #CF8A09",
"L. c #EC851B",
"P. c #F0851A",
"I. c #C8BA06",
"U. c #C9B918",
"Y. c #D5BB11",
"T. c #F0BC12",
"R. c #D08D33",
"E. c #E98827",
"W. c #EA8B30",
"Q. c #C5B728",
"!. c #C6B838",
"~. c #D3B32D",
"^. c #EFB92E",
"/. c #C9C718",
"(. c #CEC513",
"). c #EAC507",
"_. c #F3C20A",
"`. c #E6C51A",
"'. c #F2C418",
"]. c #C8C828",
"[. c #D6C62F",
"{. c #E7C42B",
"}. c #A9944A",
"|. c #9AA44C",
" X c #B8AE4C",
".X c #968F6D",
"XX c #B5966E",
"oX c #B4B069",
"OX c #9DA066",
"+X c #D08B4F",
"@X c #C4B748",
"#X c #D9BB47",
"$X c #CEB454",
"%X c #EAB54B",
"&X c #C8BA77",
"*X c #CEB669",
"=X c #DF985D",
"-X c #D1C44D",
";X c #CBC26C",
":X c #E0C657",
">X c #BDC54D",
",X c #103D85",
"<X c #094588",
"1X c #154487",
"2X c #065597",
"3X c #10518F",
"4X c #2E6E8D",
"5X c #0355A4",
"6X c #2F7BAE",
"7X c #1A6895",
"8X c #4A7293",
"9X c #6F6F93",
"0X c #616498",
"qX c #91548A",
"wX c #BA5589",
"eX c #B85797",
"rX c #B0518A",
"tX c #8E6E94",
"yX c #A6698C",
"uX c #9370AA",
"iX c #C54D8B",
"pX c #C84B95",
"aX c #CB4E92",
"sX c #388CB8",
"dX c #368EB4",
"fX c #548890",
"gX c #6D8D8F",
"hX c #4A86AA",
"jX c #4C8AB0",
"kX c #6F97A6",
"lX c #79BBBC",
"zX c #74A9AC",
"xX c #62A4A7",
"cX c #6EC3BD",
"vX c #1C98C8",
"bX c #2797C8",
"nX c #2F8EC8",
"mX c #1DA0CC",
"MX c #78BDC4",
"NX c #75B5CC",
"BX c #4288C2",
"VX c #5EC9C8",
"CX c #64CCCD",
"ZX c #6AC8C7",
"AX c #74C3C3",
"SX c #77C6C7",
"DX c #6BCBD0",
"FX c #8A9991",
"GX c #88AFB1",
"HX c #A1A695",
"JX c #D5B58B",
"KX c #95C1B1",
"LX c #C7C38D",
"PX c #86B7C7",
"IX c #87C2C8",
/* pixels */
"pXeXyX1 .   O > i ( 1X<X1X1X1XL L / d :       O > t G 3X5X5X5X5X5X5X5X5X5XnXnXbXvXvXmXbXbX7X<X<X<X<X<X<X<X<X<X6XnXbXbXdXH y ; O ",
"eXl.q + + O ; t I L 1X1X,X1X,X( P i ; O @ @ O ; i / 3X2X2X2X5X5X2X2X2X2X2X2X2XnXbXbXvXbXbXnXnX<X<X3X<X<X<X<X<X<XnXbXvXbXjX` y ; ",
"T T +   O O > P ( ,X,X,X<X1XL P > O O O O O , H ) 2X2X2X2X2X<X3X3X3X3X1X1X3X) 3X6XsXnXdXbXbXbXnX<X<X<X1X1X1X,X<X2XbXvXvXdXjXP J ",
"K > O   O ; i ( 1X<X,X1X1XL J > O   O ; ; t 4XjXsXsXsXjXsXhX8XP G u u u t t t u i H 4XdXdXsXdXsXsX3X<X1X,X,X,X<X<XnXvXvXbXsX6XP ",
"K ; + + O ; / ( <X,X1XL L H > ; # O O ; i hXjXjXhX8X` i t > ; , ; ; ; ; ; ; ; O O O O : ; , H ` fXhX4X) 1X1X1X,X<X2XbXbXbXnXBX) ",
"; O + + O i / 1X1X,XL I G > O     O ; K hXhX8Xi , , O O ; O #   +   O # O   O           O O O ; ; , H ` ( ( ,X1X<X<X6XbXvXbXnX6X",
"O O + ; > / P ( I I _ K ; O X       K 9Xd , ; O         O O O           @   @ @ @ @ @ @ O O O O O ; : ; > K I L 1X<X2XnXbXvXbXbX",
"      ; u I ( I 0X9XK ; +         f : ; ; O O               O O       e FXFXGXGXzXzXkX..s @ : @ ; O @ @ O ; t J L 1X<XnXvXvXvXvX",
"      ; U I U uXuX .O   O         O   O O O O         O             . O O @ [ GXGXIXAXAXSXAXAXzXd 2 : O O O O ; t / ( 3XbXvXvXvX",
"      ; U 0XuXuXtX+ +                 . .   + O + + . . $ . . . $ . . .   O O @ 2 ' cXAXAXZXZXDXSXIXzXd : @ @   O > i ) sXbXvXvX",
"    O f uXuXuXuX< O           +     . $ % 3 M { * * 5 8 l l l l 6 % * $ + + O O O @ : ^ IXMXDXZXDXAXSXlXlXs @ @ O O ; t 4XdXdXvX",
"  O + tXuXuXuX< +   # +       . . $ % N c.z 6 w l.yXwXN.l.k.R R R R R T 1 +       O O @ @ ^ AXMXZXZXZXZXAXlXGXs       O , 4XdXbX",
"    1 tXuXuXT + O O   O     . $ 4 N b.N 6 8 rXiXiXwXk.M.M.m q q 1 q 1 1 a T . +         @ @ @ GXAXSXcXDXZXZXAXcXfX@   # ; , ' dX",
"O + a tXuXqX+     O       . % z b.b.h g l.wXiXaXpXrXm q q m T W E T  .tX! q 1 + +               s lXAXZXZXZXZXAXlXGX2 @ O ; : ' ",
"O O  .tXtX1 +           . 3 c b.b.g g wXiXaXiXwXk.q q Q Q Q Q E Q Q Q Q ! tXtXf +     O       O O 2 GXlXZXDXCXDXDXSXlX2 O ; O O ",
"O ; tX .a + +         . 3 $.v.v.g l wXiXaXiXrXw q T W E E E Q Q E E E E W E W tXtX1 +           O O @ ..AXZXDXCXZXZXAX8XJ O O O ",
"O ; 0X| < O       . . 3 c v.v.x 7 wXpXpXwXM.q q E 9XuXuXuXtXuXT p t t t t p a T tXtXq +               @ ^ SXSXDXZXZXZXMX' d O   ",
"O ; | t O O   .   . % z V.x.b.h N.aXpXpXl.a < tXuX0XW W U u t t P 8X8X/ / J G t p 9XtXf +       .       : ' SXAXZXZXCXZXxX_ K @ ",
"; , [ O O       . 3 7 v.V.V.h B iXaXaXN.a 1 9XI I I U u t G 1X3X3X2X6XsX6X) L L I u t  .a . .   S r o . O O d cXZXCXCXZXNX' PXs ",
"; f < O   O   . X.4 %.V.8.&.g N.aXaXpXR 1 Y U I L ( u t ( 3X3X3X2X3X2X7XnXBX<X,X1XL U t [ . +     LXS $ $ O X ^ AXZXCXZXDXxXzXAX",
"O f .       . { 3 h f.f.%.g B wXaXpXk.q t U I I P t H jXsXsXjX4XJ i i i i P 8X( L ( L 0XO [ +     9 JXn 3 . X X ' SXDXCXCXZXjXDX",
"O O       . 5 n.4 b.f.@.#.g N.wXaXrXM.1 U U I 0Xt i hX6X4X4XH i i ` ` ] / H i u P P ( ( .., < O     XXZ N 3 .   @ lXAXZXCXDXCXCX",
"O   .   . $ HX6 h 8.@.+.c 6 iXaXpXrXa < U 0X9XG u 4X4X7Xy y ) 6X4XxXMXNX4X7X7XNXH t / / jX/ y O   . 3 7.1.n % .   2 MXZXZXCXCXCX",
"      . $ 0 XX4 o.%.@.+.g m wXaXpXeX1 a 0X9X| t ` 4X4Xy y gXkX4X] ] ^ fXlX' 4XhXPX_ t J 6XhXt O   . $ n.o.o.n % .   ' SXZXCXCXCX",
"      . % XXn.6 +.@.@.+.7 R iXpXeX! 1 [ 9X| t y 4X8X, y gX@ :   @ f V e = X d ' IXNX_ u / 8Xd ; O   . 3 #.+.#.h $   @ GXSXCXVXCX",
"      $ 3 XXv 7 +.@.@.+.6 k.aXpXeXa < 9X| | > ^ fXt ; # # O O O @   S oXLXLXe X xXPX8X` u hX` > O     3 $.o.+.o.3     d AXZXCXCX",
"      . n +X4 g O.@.@.8.7 l.aXpXl.a < | | ` ; gX2 O + a p FXG J J y X X - LXoX|.= .._ 4X_ u _ , O     $ h #.O.+.XX$   @ zXDXCXVX",
"      $ +X+X6 k +.@.@.f.6 l.iXpXQ p t | | J : [   +  .a tXK 9XJ J s ..@ r o ;X>XC = ..| | i ` d O +   $ 4 7.+.O.+X* . @ s MXZXCX",
"      $ +X+X4 n +.@.*.V.6 R aXpX~ p t | | p O * $ w a tXJ _ gXgXe V [ d . .X% oX|.oX@ | _ PXi K O   . . % n O.O.R. X. O @ PXAXZX",
"    . 5 +X+X4 n +.@.>.V.6 m iXpX~ Y t | 9X1 . $ M M.R tX8Xs s FXV A.HX^ X M 7.8  X;X- ^ ` PXy K +       . z O.2.R.$X5   @ ' cXZX",
"    . 0 +Xh.4 k +.=.,.x.7 w iXpX~ ! < | tX1   $ h k.yX .[ gXe [ r C S S = * 7.1.3.;XLXX ' PXt K +       . 4 o.O.R.#XF *   @ SXZX",
"  . $ n +Xq.4 k +.@.,.x.j 6 iXpX~ tX< T tX5 . % h c.N B.X.X [ f S 9 n.C 9 0 1.+X5 ;X&X= kXIXt f O . [ .   % #.O.~.#XF.% . @ lXAX",
"  . $ 7.R.5.4 6 +.*.,.:.c.6 l.eXQ qX1 * { 8 $ 5 B b.l yXT # T m M v 0.Z 3 n.x w.5 ;X}.r zXPXy p O . .X$   % n 1.^.~.e.4 . @ ] AX",
"  . % 0.5.5.Z 4 o.;.,.:.v.g l rXl.eXq * { z . 3 b.v.k.R w * { M N b 0.Z 4 7.c 1.0 oX0.C FXgX: O O . JX5   $ n 1.%XS.q.1.%   2 lX",
"O . $ 7.i.i.0.4 O.;.,.,.>.x 6 yXeXeXE + 5 M . w 9.c $.c.R { 8 N D n.D 4 g 1.x 2.v oXZ XXFX^ : O   $ JXn $ . v e.%XS.i.e.$   @ IX",
"O   . Z i.i.w.6 j 8.:.,.>.%.6 l rXeX! a $ M . z #.8.x b.c.l g 7 g 7 6 n #.Z.c +X0 &XF.}.X.[ +   . 3 9.O.% . 0 *X%XK.y.q.%   @ GX",
"  & . 0 6.i.q.k 7 v.:.<.-.;.j 6 l.eXqXE 1 .   % n 9.%.c c $.b.$.j c $.j m.c 6.R.5 &X*Xr M <   . $ 7 @.+.3 . - $XR.y.y.q.3   @ GX",
"  - & % q.y.5.w.6 c f.<.-.=.8.7 6 rXeXQ T 1   . 7.c 8.8.%.%.&.$.%.%.x 9.o.j %X~.0 *X&Xo [ ;   $ 3 n *.@.3   9 $X4.y.y.5.0   @ GX",
"  - S % q.i.i.q.8 6 8.g.-.-.;.$.7 5 rXrXqXm + . 3 n.7.j O.%.9.+.j c 9.9.j R.R.3.!.;XS f + O   . 4 9.*.f.3 . 0 @X4.y.y.5.D   X FX",
". & .X$ e.i.i.i.w.6 h f.=.-.=.f.c 6 l rX! yXq $ $ 3 m.+XZ.O.o.9.h.h.h.x q.R.$X0 @XoX$ f O     $ 7 9.*.f.3 $ v F.5.y.4.F.F   X kX",
". . LX$ b q.y.i.q.k 4 N *.-.-.<.>.&.6 5 M. .N.l % $ n.8 Z.+Xh.9.2.n k R.%X#X9 *XoX* w +       $ x ;.=.%.3 $ b 5.y.y.4.#XF X X gX",
"  o LX& 3 e.i.y.i.R.4 6 +.*.-.-.<.>.$.6 3 4 M.N.w $ % M n.b h k 1.:X%X#X@X9 &XOX$ 5 * . .   . 3 f.*.*.2.% $ 1.5.i.y.S.#XF X X FX",
"  . oXZ $ n.i.y.y.i.=X6 6 #.;.-.<.,.:.%.g 4 3 5 R B.$ . $ 5 n.&X&X*XA 9 }.LX- . . $ $ % M . 3 g @.*.h.1.$ $ e.y.y.y.S.#XC . X GX",
"O . 0.*X* 8 q.y.y.y.R.e.4 6 &.;.>.<.,.:.%.#.7 4 3 3 $ . . . . . 9 } OX} & .   . . $ 6 { 5 % 3 7.2.E.%X0 $ % q.y.4.S.~.-Xb   @ GX",
"O   9 ;XD % 1.5.y.u.E.W.w.7 4 j 8.>.,.<.<.*.;.8.j 6 4 % $ $ . . . . . . o   . $ 3 h 9.7.% $ k 2.^.^.:X% $ 3 q.y.S.K.Y.!.&   @ GX",
"  . $ ;XoX5 3 w.i.a.L.E.R.w.4 4 g o.>.:.:.<.=.;.f.8.b.N g 4 3 3 % $ * $   . % 4 n 9.#.7 % % q.^.^.^.F.% $ b q.4.S.~.{.!.o   : PX",
"    . OX X3.$ v q.p.a.E.E.p.R.k 4 4 7 n v.f.*.=.=.>.C.x.V.V.%.$.c.M * . . 3 j %.%.%.g % $ }.%X^.T.K.b * % 0.5.S.U.[.U.G.. O 2 lX",
"      & @XG.- $ Z q.i.E.L.E.p.h.w.4 3 4 7 j O.%.;.;.%.V.V.V.%.j 7 4 % % 4 n %.@.%.#.3 $ v %X^.K.u.h.3 . 5 e.4.K.U./.U.H.. @ d SX",
"    . .  X!.@X* 5 0.q.E.E.P.d.u.p.h.2.7 4 4 3 6 6 6 6 6 4 4 4 4 4 6 7 m.+Xj.W.=X+X4 % 3 %XK.u.u.p.1.$ $ v 5.S.Y.(.U.!.C . @ xXAX",
"      . 9  X!.H.% 3 1.6.W.L.P.s.s.d.p.h.w.m.8 3 3 3 4 3 4 6 6 k m.Z.+Xj.j.W.+Xm.% % 4 w.p.s.s.p.h.6 $ $ e.R.[./.(.U.@X&   @ IXZX",
"O O O . . oX!.Q. X% % Z +XW.L.d.s.s.d.u.p.p.W.R.R.h.2.g.g.g.g.r.r.r.r.r.r.g.n 3 % 4 R.p.u.s.s.p.0.$ $ b G.[.(.I.I.D. XX X 2 AXZX",
"O O O     o  XQ.H.@X5 3 6 +XR.W.p.d.s.s.s.s.s.L.P.E.j.r.t.t.t.t.t.t.r.g.9.h 3 % 6 +Xp.s.s.d.p.Z.3 . . ;X].(.I.I.I.G.F X X zXcXCX",
"          . r  XQ.U.@Xr % % b +XR.p.d.s.s.s.s.s.P.P.L.P.d.t.t.t.r.g.9.n 3 % 3 g h.p.s.s.s.p.h.4 . . J.[./.I.I.(.D.-X-   @ IXZXVX",
"            . J.Q.U.Q.G.}.9 % 4 k 6.h.p.p.p.p.p.p.p.W.W.W.W.j.g.2.j 4 % $ % e.R.u.u.s.s.p.h.v $ . r @XD.I.I.I.I.].J.o O ^ lXZXCX",
"              o  XQ.U.U.U.Q.3.$ % 3 4 8 Z w.h.h.Z.Z.}.+X+X7.z 4 % % $ % Z F.K.K.u.K.K.E.%Xe.* . . @XQ.I.I.I.I.U.-X-   : GXSXDXCX",
"                o H.Q.U.I.I.Q. X$Xb $ % % 3 4 4 4 4 3 3 % % % $ & 9 F.:X^.^.T.T.T.T.^.%X3.$ $ . @XQ.U.I.I.I.U.!.}.X X ^ MXDXCXCX",
"O O O             o  X!.U.Y.I.U.Q.[.!.!.Z 0 5 3 3 % * * * % b S.#X{.{.`.T.'._._._.T.#X0.$ . & F.Q.U.I.I.I.I.].>X-   @ lXcXZXCXVX",
"O O O     .     X.  . H.!.U.I.I.I.I.`.`.{.#X#X#X#X:X-X#X#X[.^.{.`.)._._._.T._.`.`.[.r . . o  XQ.U.I.I.(.(.].-XC   @ fXcXZXZXVXCX",
"O +     .     .   X.X o A G.Q.I.I.I.I.`.`.`.{.`.`.`.`.`.T.'.T.T.).)._.T._._.T.{.@X9 . o o  XQ.U.I.(.I.I./.].|.X X s AXZXcXZXZXSX",
"1 . .     o         FXX X 9 G.Q.U.U.I.I.).).).).).).)._.T._._.).).).).'.'.^.[.Z $ & . 9  XQ.U.I.I.I.(.].].H.X X : GXSXZXZXZXIXkX",
"R % .       O O   X e .X- X o Z  XQ.U.I.I.).).).).).).T._.T._._._.T.T.~.#XF.& . . . A !.U.Y.I.I.(././.].|.- X @ zXSXZXZXAXMXGXK ",
"N N % . +             r OXS X . & 9 G.!.Q.U.U.{.`.`.`.`.`.Y.T.{.^.{.#X3.* & . X r  XH.U.I.I.(.[./.].D.J.= X @ kXMXZXZXAXMXkXK a ",
"V.&.N 3 .     O   .     - OX|.r o X o o C }. X@X!.-X-X-X-X-X$X@XA 9 . . $ . r H.G.Q.U./././././.].J.|.e X X ' SXAXZXZXMXFXT f + ",
":.x.$.M *               X = |.|.OX}     . . $ & % - - 9 & & & . .   . o .X&X;X-X]./././././.D.D.D.H.= X   fXAXZXZXcXZXfXT a . + "
};
