/* XPM */
static char *ef1d35ba5d5d400ed339e7f977d47871cU8cVod18LlQKPCj[] = {
/* columns rows colors chars-per-pixel */
"64 64 256 2 ",
"   c #020202",
".  c #0B0102",
"X  c #010B01",
"o  c #02020B",
"O  c #0A010B",
"+  c #060A07",
"@  c #140101",
"#  c #1C0001",
"$  c #14000B",
"%  c #180705",
"&  c #041304",
"*  c #161703",
"=  c #010213",
"-  c #0C0113",
";  c #010A14",
":  c #01031B",
">  c #010B1B",
",  c #0A041A",
"<  c #150216",
"1  c #031619",
"2  c #12191B",
"3  c #240100",
"4  c #2C0100",
"5  c #270308",
"6  c #340100",
"7  c #3C0100",
"8  c #360705",
"9  c #361802",
"0  c #280217",
"q  c #301013",
"w  c #0C280B",
"e  c #372601",
"r  c #2B2B05",
"t  c #010422",
"y  c #030926",
"u  c #021629",
"i  c #040836",
"p  c #031736",
"a  c #19112A",
"s  c #270225",
"d  c #330E2C",
"f  c #112A30",
"g  c #2B2936",
"h  c #430000",
"j  c #4B0000",
"k  c #470B03",
"l  c #560101",
"z  c #441601",
"x  c #511310",
"c  c #680702",
"v  c #71100A",
"b  c #562902",
"n  c #47360B",
"m  c #6F310A",
"M  c #4C112F",
"N  c #4F2A31",
"B  c #6F3130",
"V  c #73192D",
"C  c #32442D",
"Z  c #544F06",
"A  c #724C0A",
"S  c #52512F",
"D  c #6B512A",
"F  c #726D2A",
"G  c #696A13",
"H  c #011A45",
"J  c #301A4B",
"K  c #0C2C50",
"L  c #292547",
"P  c #2C2B57",
"I  c #29355B",
"U  c #323153",
"Y  c #1C3B6A",
"T  c #183B76",
"R  c #083971",
"E  c #2D2C66",
"W  c #352C68",
"Q  c #283468",
"!  c #343567",
"~  c #2B3777",
"^  c #57184E",
"/  c #791C4F",
"(  c #4E3056",
")  c #682A49",
"_  c #78264D",
"`  c #7B2756",
"'  c #6E2F52",
"]  c #521D69",
"[  c #651E72",
"{  c #5A2867",
"}  c #493767",
"|  c #543368",
" . c #48316E",
".. c #64266A",
"X. c #662474",
"o. c #712E6B",
"O. c #315056",
"+. c #07457B",
"@. c #164379",
"#. c #174D6F",
"$. c #334F6F",
"%. c #2C6678",
"&. c #1A4D57",
"*. c #4A5053",
"=. c #6D4C4D",
"-. c #73734A",
";. c #475375",
":. c #4D4D6F",
">. c #6B5371",
",. c #4C6A6A",
"<. c #656F7B",
"1. c #8D360F",
"2. c #B43516",
"3. c #90362C",
"4. c #AB372D",
"5. c #911217",
"6. c #CF3418",
"7. c #C83726",
"8. c #D93A38",
"9. c #CF3A32",
"0. c #E63436",
"q. c #E6312D",
"w. c #884D0B",
"e. c #AF4C15",
"r. c #AD7113",
"t. c #924B33",
"y. c #B04D32",
"u. c #AE7233",
"i. c #986A14",
"p. c #CF4F12",
"a. c #DA7A07",
"s. c #D97A18",
"d. c #CB7D19",
"f. c #E57706",
"g. c #EA7710",
"h. c #C84438",
"j. c #CD4D30",
"k. c #CC7A28",
"l. c #C57B34",
"z. c #D5772A",
"x. c #E67426",
"c. c #841C4E",
"v. c #891D55",
"b. c #911D58",
"n. c #842253",
"m. c #872457",
"M. c #8E294F",
"N. c #922D67",
"B. c #A83160",
"V. c #CD3C42",
"C. c #8D4F51",
"Z. c #B94948",
"A. c #AD4A52",
"S. c #AC754F",
"D. c #914F73",
"F. c #B24E75",
"G. c #936768",
"H. c #C54545",
"J. c #D74344",
"K. c #CC7C51",
"L. c #6A8264",
"P. c #AE880F",
"I. c #B2B518",
"U. c #B38932",
"Y. c #9AA734",
"T. c #ACB132",
"R. c #948A24",
"E. c #CE8908",
"W. c #EE8617",
"Q. c #C4BB16",
"!. c #E8BD15",
"~. c #D68936",
"^. c #E8862D",
"/. c #D0BA2F",
"(. c #EFB830",
"). c #BDC32B",
"_. c #CEC61B",
"`. c #ECC413",
"'. c #C8C636",
"]. c #D1C62B",
"[. c #E5C329",
"{. c #EAC335",
"}. c #B8964D",
"|. c #B5B053",
" X c #938E69",
".X c #AFAB6F",
"XX c #9D945E",
"oX c #D08A4F",
"OX c #CFB74F",
"+X c #ECB64E",
"@X c #D0B06A",
"#X c #E39B5C",
"$X c #BDC457",
"%X c #B8C166",
"&X c #CAC74E",
"*X c #C5C566",
"=X c #E3C74B",
"-X c #143E85",
";X c #2A3A81",
":X c #084786",
">X c #154485",
",X c #075697",
"<X c #13548E",
"1X c #2E5887",
"2X c #166B8A",
"3X c #316B8E",
"4X c #2E75AC",
"5X c #116CA9",
"6X c #70548D",
"7X c #507090",
"8X c #6D7293",
"9X c #5E69A0",
"0X c #A53B84",
"qX c #955088",
"wX c #BA5686",
"eX c #B6579B",
"rX c #AF5494",
"tX c #906E92",
"yX c #AD668F",
"uX c #AD59A7",
"iX c #996AA9",
"pX c #8D72AC",
"aX c #A665A7",
"sX c #A566B2",
"dX c #975BA3",
"fX c #C55090",
"gX c #C657A4",
"hX c #398BB7",
"jX c #3590B8",
"kX c #30829D",
"lX c #50858F",
"zX c #6A9090",
"xX c #4588B7",
"cX c #4D8AAA",
"vX c #7BBABC",
"bX c #73A6AC",
"nX c #6F9BA6",
"mX c #7AC2BE",
"MX c #2794CA",
"NX c #338FC6",
"BX c #78BCC6",
"VX c #70B4CC",
"CX c #50A2C7",
"ZX c #6BC6C8",
"AX c #76C4C8",
"SX c #72C6D5",
"DX c #909592",
"FX c #85B7B8",
"GX c #8CB0B8",
"HX c #A0A89B",
"JX c #E1B481",
"KX c #8CC2BD",
"LX c #88BAC6",
"PX c #90B2C8",
"IX c #85C3C6",
"UX c #DCC287",
/* pixels */
"8.H.B @ @ 5 wXfXfXb.v.n.m.m.v.n.' ) O o : , s ....X.X.X.X.[ [ X.[ [ [ [ X.X.[ X.X.sXsXsXuXuXo./ n.m.c.v.c.n._ 0 @ . 0 yXD.5 .   ",
"h.4.3 $ 5 D.wXN.b.b.c.n.v./ n._ M # O o , J { ....X.X.X.[ X.X.X...X.X.X.....{ { { ..dXaXaXaXaX` n.c.m.v.v.n._ ) N $ # 5 yXM $   ",
"Z.h @ $ 5 yX` / v.v.c.n.v.n.' d @ .   - ( ..X.X.....[ X.[ [ ....{ { { { ..{ { { | { { ..aXaXaXaXN.m.c.n.m.m.v.n._ ) 5 @ $ tX< O ",
"B 3 @ # F._ ` v.v.c.m.m.n.` d @ . . $ >.iXsXsXsXsXaXsXsXaXqXqX{ | J s s , , , - < - < s d >.tXtXyXD.` n.m.c.b.v.n._ ) 5 $ $ G.$ ",
"@ . @ d _ c.c.v.c.n.c./ _ M # .   O iXiXiXsXiXiXiXiXiXiXtXpXd - = = = o - o o = o o O O O O O < g tX' _ _ n.n.m.c.` _ ) $ $ < 0 ",
"    $ ) _ v.v.v.v.c.n.n.) @ . o y pXpXpXpX8X6X6X6X6XtX:., - , = : : > > y u u u p u u = = = : = = - 0 M _ ` _ _ n.m.m._ ' $ $ d ",
"  . 0 _ n.c.b.b.b.b.N.F.5 . o t 9X1X~ ;X;X;X~ ~ ! P a o , = t y p 1XhXxXhXjX+.+.@.Y #.Y Y Y K i t : , O 0 N ) _ _ n.m.` _ D.$ . ",
". @ ) n.c.b.b.b.N.fXwX0 @ o > Q ~ T >X-X>X-X@.Q y : = : : i @.>X<X<XNXMXMXMXMX4X:X:X:X@.@.T T @.#.7XK t = - $ ) _ _ n.m.m.` ^ $ ",
"@ 0 _ n.v.b.v.F.fXwXN.$   = K T T >X>X-X-XT I = o = t p @.<X<X<X,X,X,X5XMXMXMXMXNX:X:X:X>X@.>X@.@.3XxXcXK u o $ M ' _ n.c._ yX0 ",
"# N _ m.v.v.wXfXeXD.0 O = u Y >X-X>X>X>XY K ; o ; y #.<X:X,X,X,X,X,X,X,X,X5XNXNXNXNX,X:X:X>X>X+.:X:XNXjXhXcXu = - 0 ) ` n.n.` yX",
"5 ' _ v.b.fXgXrX..s O o t Y @.>X>X-X@.Y u = o > p <X<X,X,X,X,X,X<X<X>X<X>X@.@.xXhXhXxX4X:X:X>X>X:X+.:XNXjXjX3XK t < 0 ) ` ` ` yX",
"8 _ v.N.fXgXeX^ ( , o = H T @.>X-XT Q p = = ; &.xXNXNXNXNXxXxX1XK H i y y t y u p H %.cX3XT T T T :X+.4XMXMXhXR I : - < ' ` ` eX",
"M _ N.fXeXqX] ( a = o = Y T @.T ~ $.p = = > #.hXjXjXhXcX%.p t = = = = = = ; ; ; ; ; = > y p I Y @.>X:X:XMXMXNX<XY U , O $ ' ` rX",
"_ m.fXgXrX{  .L = = = L ~ ;XQ 9X8XU : = = &.xXjX4X3Xu ; ; o o     ; ; 1 f O.&.f u > > = = = = t K T >X:X5XMXNXhXY I L , - < ) ` ",
"m.wXgXrX] W P L o o > I Q ;XpXpX>.= = > H 1X%.3Xu > o   o o ; f nXGXFXIXmXmXAXVX2X2X3XVXK u ; = = y Y @.+.NXMXNX@.Y Q P : O 0 ' ",
"0XfXeX]  .W ! : o = : ! 9XpXpXtXO o = y 3X%.p : =         o ; > > u O.nXmXAXAXSXSXVX2X2XSXBXbX1 o = : p #.hXNXNX4XT Q ! P , $ N ",
"fXgX{  .W W P : o = U pXpXpXtX<   o : $.$.> ; o o   .                   ; ; &.FXvXBXSXkX2XSXmXmXFX; = = y 3XjXNXxXT Q E P L = O ",
"gXqX] W E E U = o - pXpXpX6X( O     f I = =   . . . @ @ $ < O .       O o o ; o ; L.BXSXkXZXZXZXAX%.f = > u kXhXxXR Q E ! P t = ",
"dX{ W W W ! L = o - pXpX6X:.,       ; ; o o . @ $ 0 D.yXqX( s < $ $ o o o   o       1 &.BXSXZXZXZXBX%.O.: = > lXxXR ~ E E ! L : ",
"6XW W E ! P y o o U pX:.;.a = o       . @ $ M 5 D.qXD.M d ..( ( ( ( g , o o   O .     X > nXAXSXZXSXcX1X;.: = u cX3XQ ~ E ! U y ",
" .W W ! E U = o o >.:.;.;.= o       @ # =.8 _ F.yXM M { { | | | } } :.} ( a   . @ DXe .   ; $.BXZXZXVX1X$.;.: = y 7XQ Q ! E E I ",
"W W E W ! U = o o *.;.;.f o o     @ # C.7 V F.wXd ^ tXpX6XW i i $.9XQ p t g a   . % .X.X@ . o p IXAXBX3X1X;.8X= > I I Q ! W ! E ",
"W W W W ! ( o o = :.;.;.= o     . @ B x V F.wX^ | pX! $.i K 1X>X1X>X4XcX@.@.y U O . @ XXu.A @   1 vXBXBX1X1X%.8X= = P E ! W E ! ",
"W E W W ( tXo o = :.;.I o     . @ x B h F.fXqXs 6X! Y p 1X3X4X:X:XR R +.xX@.$.p ;   . 3 @Xw.}.@   1 IXAX3X1X1XLXL = : I E W E E ",
"W W W W o.D.O o = :.:.y o     @ 8 3.h D.fXeXs 6X! 1Xi 3X3X3XH K xXVX2X#.#.p &.O.u o   . D @Xw.@X@ X 1 LXVX1X%.AXLX; ; g W W E E ",
"W E W ] uXD.$ o = :.:.= o     @ B 3.j F.fXeXs ! 8XH 1X1X#.u 7X7XlXlXvX%.%.cX7Xp I = o . . UXw.i.@X. X zXPX%.%.SXAXlX; : P W ! W ",
"E W  .6XeXN.$ o : :.*.o     . 8 3.4.V wXfX` J 8X:.i 1X3Xu DX*.; C S r w f O.LX%.p U o .   # t.1.@XF . o PX%.%.VXZXAX1 = L P E E ",
"! W ] sXeX^ $ o = *.>       q B 3.5.M.fXwXM :.7Xg L 7Xt ,.  ; 2 w C HXL.HX& nX7XK I ,     @ 3.1.r.}.@   f 7X%.SXZXAXO.= t ! E Q ",
"! W X.uXuX' O   o *.o     q 3 3.3.c A.F.wXs 8X;.= *.1 ; - g U $.f X *.* .XL.w zX$.u ;   q # 7 1.w.+X@X  X FXcXSXSXAX$.: t I I Q ",
"P } o.uXqX{ O     g     . =.6 3.4.v Z.B.wXs 6X;.o *.  . *.g U zXO.*..  Xn .XS * *.g ; @ =.3 3 A w.+X}.* X O.bXSXZXSX! a : L Q Q ",
"L ( uXeXo.| O         . @ G.h 3.y.5.3.A.wXd >.6X+ S @ =.8X,.*.S -.S r % XXe F HXO.*.o . B B 3 4 w.+XP.|.  ; vXZXSXBX$.} = y Q 9X",
"i ( eXeX..| -         . @ C.h 4.h.4.v F.wX^ ( tX. N 5 >.tX*.* -.n D n e n @XG .X& <.o @ b JX@ # A +XP.OX+ X bXAXAXIX! } , > Y 4X",
"y { eXrX{ | -         . @ S.7 4.8.9.l wXwXF.s tX% @ B G.G.=.N q z t.n 9 k oXe .XX DX  . b JX3 # A +XP.OXZ X O.LXBXLX! } , > @.xX",
", ^ eX0XX.| - .       . @ S.7 y.8.7.j D.fXwX0 G.N @ N C.M D.q B B C.6 b b oX9 D + <.  @ A @Xz # b OXr.OX.XX & LXLXbX} } a t <XhX",
". s rX..{ | d O O       # S.6 Z.8.9.v h fXfX` 5 =.3 6 C.M.V M M 7 k t.m k @X9 D * ;   @ u.u.m 4 9 OXP.OX*XX X LXLX7X:.| L : 4XhX",
". . qX..{ | ( o o     . 3 S.b 1.9.7.y.j A.wXwXx q N 3 M.3.3.M.A.l 3.c y.w.OXe HXDX    # #Xe.t.6 8 }.P.OX|.X & FXLX$.} | L t 3XjX",
"  . 0 { | | } = o o   . # S.S.j j.6.6.2.j F.fXwX8 5 @ B v 4.Z.4.1.c y.v +XU.@Xr     - 3 e.p.y.4 8 U.P./.*XX X LXPX$. .| U : #.jX",
"    $ ( | | } - o     . # S.u.j 1.7.6.6.c j F.wXyX0 @ # C.A.v 1.K.oXm oX@XZ F . . q @ 4 7.6.y.4 4 u.P./.OXX & LXPX!  .| L : 3XjX",
"    . - |  .} a O       @ t.u.l.h y.6.6.h.c h C.F.yX^ 0 3 z m m b w.@X}.-.n % @ 6 .X@ 7 6.6.t.3 6 U.P.'.&X& & GX9X . . .<.> 4XjX",
"    O O J } } } -       . z u.oXm j 2.6.7.h.c h c wXwXD.5 @ @ z D b e Z   . @ 3 #Xt.3 m 6.p.K.# k r./.'.OXX X PX . . .DXU > cXhX",
"2   O   - } } } -       . # u.l.#Xv l 4.7.9.9.2.c h 7 q N N % @ # # # @ q @ 6 S.t.h h y.e.+Xm @ w.P.].'.$XX   GX . .$.PX> = cXK ",
"2       O - } } g O       9 b l.~.oXj j y.9.9.7.4.y.3.h 7 6 4 3 6 x C.=.# 4 4.4.3.7 v e.(.+X4 @ u./.Q.'.*X  o :.} ! LXvX; u 7XK ",
"N q O     O , } :.- . .    X# u.~.^.z.1.7 c y.h.7.6.7.9.h.h.4.4.3.t.8 3 j 4.2.4.6 4 +X(.W.k.3 % R.].Q.'.*X  g :.$.LXLXzXo O.p u ",
"C.x <     . o a ( < . .   r D 8 ~.~.^.k.u.h h c 2.7.7.7.7.h.h.h.c j 6 m e.e.y.c 6 u.(.E.~.w.@ Z &XQ.].&XF   :.$.nXIXvX1 o g f = ",
"Z.c q <     .   a ( $ .     .X9 8 oX^.s.s.z.r.c 7 h 7 h 7 7 h h l e.z.^.^.oXm 6 1.k.a.a.U.4 % *X'.I.].&X*   O.LXAXAXIX;   2 2 o ",
"V.Z.x =.$ @     O a d O     * .X3 b ~.s.s.s.s.z.oXS.t.m m m t.y.j.z.z.z.l.m 3 z k.s.a.~.m @ R.'.I._.'.*XX u nXBXAXAX,.; 1 2   o ",
"0.J.3.x C.# .     O < .   .    X@X9 4 oXz.s.a.s.s.x.^.^.p.p.p.p.p.p.j.y.6 3 m k.s.s.s.l.# % &XQ._.].&XZ X bXAXSXZXBX; ; f       ",
"q.8.H.c V B @ .           .   . |.|.n 4 1.k.d.s.s.s.s.x.^.x.p.p.p.p.v 7 3 A d.a.a.s.~.6 # |.Q.Q._.'.OXX & BXZXZXAX&.; 2 2       ",
"q.q.8.9.c A.B # .   O   . .     * .XOXU.8 6 b u.U.l.l.l.oXoX#Xy.z 4 4 k P.E.E.E.E.+Xb # G T.Q._._.&X-.X nXZXZXZXFX; o 2         ",
"q.q.0.8.H.c A.V 3 @     .       . . |./.OXOXm 4 3 6 6 6 7 4 4 3 9 A +X+X(.(.(.(.+XA # e T._._.].'.*XX f vXZXZXmX1 o 2     o     ",
"q.0.0.0.8.h.5.Z.B 3 .           .   . |.OX=X{.[./.P.i.A w.i.P.(.{.{.[.!.`.!.(.=Xn @ e |._._._.'.OX* & FXAXAXvXf o 2         X   ",
"9.8.8.0.8.8.8.8.H.V 3 .               . Z /./.[.[.[./.{.{.(.!.!.!.`.`.`.!.{./.* . Z T.'.]._.'.&Xr & zXIXvXvXf   ; o             ",
"6 t.H.8.0.q.q.0.8.H.3.4 @     o         . % R.OX{.[.[.[.`.`.`.`.`.!.[.+X@XA @ % Y.T.'._.].'.*Xr X ,.KXmXFXf X           .     + ",
"@ 3 c H.9.8.0.0.0.0.V.4.6 @               S . % Z /.{.].].[.[.].].].T.9 % % F |.&X_.I.).&X*XX X &.IXFXbX;               . . . XX",
"O @ # 6 t.H.8.0.0.0.0.J.Z.j # . .         X -.S + + . * r Z Z r * % % r G &X'.'.I.).).&XXXX X L.vXFXzXo o               . . e =X",
"    . @ 3 h Z.V.8.0.0.8.8.H.3.4 # @ .         +  X XXXS r * * r F .X%X$XT.T.I.I.&X$X$X* & & GXLXFX1 o o O O             . * =X[.",
"@ . . . . @ 3 B Z.V.8.0.0.8.9.H.c 6 @ .             -.XXXXXXY.Y.Y.Y.Y.Y.Y.T.*X%XXX& X & ,.KXLXO.+       O o             % *X{.[.",
"S.4 @ . .   . # 6 c Z.H.J.8.8.8.h.y.V 3 @ .   O       X & * Z G Y.Y.|.Y.G r +   X & zXGXFX&.;         O             . % OX=X(.E.",
"z.z.w.3 @ . . . @ # # 4 V A.Z.H.H.H.H.Z.l 4 @ .                 X X X X     + L.HXHXg ;   o         O           . . @ @X+XE.d.r.",
"W.s.k.u.b 3 @ . . .   . @ 4 7 l v 4.Z.Z.A.C.N @ O         O                 o o   + o                         . . # }.(.a.a.k.j ",
"W.f.W.s.k.l.k 3 @ . .   . . . @ @ # 3 @ 3 # % %                 O O .   o o                                   @ 3 oXs.a.W.s.u.3 ",
"W.W.f.f.f.s.k.oXD 3 @ . .                 .             .         O             .                           @ # u.z.f.f.f.k.z @ ",
"W.W.g.f.g.f.g.s.z.~.u.4 # @ . .                                                   . . . . .     O         . 3 u.s.g.f.a.x.oX# . ",
"W.W.W.g.g.g.f.f.f.s.~.oX}.C.n .                       O o                       . % S  X=..         .     % S.k.s.f.f.a.z.h @   "
};
