/* XPM */
static char *_ec76a3d372e415eb9260485acd1cf71g2t0zWfM7bHPKIGg[] = {
/* columns rows colors chars-per-pixel */
"64 64 256 2 ",
"   c #020202",
".  c #0B0101",
"X  c #020A02",
"o  c #0C0B01",
"O  c #02030B",
"+  c #000A0C",
"@  c #0C020B",
"#  c #130100",
"$  c #1C0000",
"%  c #130B00",
"&  c #14000A",
"*  c #1C0605",
"=  c #0A1503",
"-  c #151503",
";  c #010113",
":  c #02011C",
">  c #050717",
",  c #180115",
"<  c #021718",
"1  c #230000",
"2  c #2B0000",
"3  c #27020A",
"4  c #330101",
"5  c #3B0100",
"6  c #360605",
"7  c #271601",
"8  c #260117",
"9  c #370315",
"0  c #31140D",
"q  c #2A2700",
"w  c #352703",
"e  c #363211",
"r  c #010324",
"t  c #000B25",
"y  c #02092A",
"u  c #031628",
"i  c #031638",
"p  c #15152B",
"a  c #2D0F2D",
"s  c #133131",
"d  c #2D3232",
"f  c #430000",
"g  c #4B0100",
"h  c #460C03",
"j  c #570501",
"k  c #481702",
"l  c #4D0E12",
"z  c #660203",
"x  c #70140B",
"c  c #502E06",
"v  c #70300A",
"b  c #4E102D",
"n  c #542E34",
"m  c #712E2C",
"M  c #7E1B20",
"N  c #374737",
"B  c #2E441E",
"V  c #50460F",
"C  c #6A4E09",
"Z  c #786B11",
"A  c #505037",
"S  c #727234",
"D  c #635C2E",
"F  c #0C2E50",
"G  c #353556",
"H  c #2E3050",
"J  c #1A3C68",
"K  c #183B78",
"L  c #0E3D70",
"P  c #2C396C",
"I  c #2B1845",
"U  c #511C57",
"Y  c #51304F",
"T  c #6D2B54",
"R  c #712F4F",
"E  c #631E6B",
"W  c #5A2767",
"Q  c #573466",
"!  c #473067",
"~  c #642866",
"^  c #642673",
"/  c #6C356B",
"(  c #5C1E5F",
")  c #104758",
"_  c #274B52",
"`  c #347053",
"'  c #184779",
"]  c #134A6D",
"[  c #335173",
"{  c #336775",
"}  c #52514D",
"|  c #704B50",
" . c #496552",
".. c #455479",
"X. c #534C71",
"o. c #764E74",
"O. c #486975",
"+. c #6E6D66",
"@. c #841607",
"#. c #903614",
"$. c #AE2F10",
"%. c #91382C",
"&. c #B3372B",
"*. c #921A23",
"=. c #CC2E14",
"-. c #E52913",
";. c #D83B38",
":. c #CE382B",
">. c #E7352A",
",. c #E73836",
"<. c #EF3533",
"1. c #8F4C0D",
"2. c #B14B12",
"3. c #BB7905",
"4. c #B67514",
"5. c #8D482F",
"6. c #B24C31",
"7. c #9A6D33",
"8. c #B97924",
"9. c #AE7134",
"0. c #8D620A",
"q. c #D65518",
"w. c #D5550D",
"e. c #E94D05",
"r. c #E8500F",
"t. c #CB7402",
"y. c #C77805",
"u. c #D87804",
"i. c #DA7818",
"p. c #C87013",
"a. c #E77606",
"s. c #E87A12",
"d. c #C7443B",
"f. c #D34F2F",
"g. c #C97B2A",
"h. c #C97A37",
"j. c #D2712C",
"k. c #EC792E",
"l. c #91195A",
"z. c #A91B58",
"x. c #A21E4C",
"c. c #8E2B52",
"v. c #A9354B",
"b. c #983267",
"n. c #A93572",
"m. c #A41A65",
"M. c #CF3D43",
"N. c #E23E45",
"B. c #94504C",
"V. c #A74A48",
"C. c #B84647",
"Z. c #AE5052",
"A. c #AE714A",
"S. c #8D4D72",
"D. c #AC5473",
"F. c #987261",
"G. c #C64544",
"H. c #D04545",
"J. c #CB7849",
"K. c #EE7D43",
"L. c #7A8226",
"P. c #668768",
"I. c #37877E",
"U. c #B28A0E",
"Y. c #B6B117",
"T. c #B18835",
"R. c #B5AD2D",
"E. c #918721",
"W. c #D98301",
"Q. c #C7880F",
"!. c #EA871B",
"~. c #F08917",
"^. c #CCBC03",
"/. c #C8B907",
"(. c #C8B717",
"). c #D7BA19",
"_. c #D2BA04",
"`. c #F0B816",
"'. c #D68933",
"]. c #E78925",
"[. c #EC8930",
"{. c #D7B838",
"}. c #C8B32F",
"|. c #ECB833",
" X c #D1C414",
".X c #E9C711",
"XX c #D8C423",
"oX c #CBC436",
"OX c #EDC32D",
"+X c #AF8B4C",
"@X c #B4B350",
"#X c #B2B86B",
"$X c #949357",
"%X c #CC8849",
"&X c #D58948",
"*X c #D58B53",
"=X c #E78B4D",
"-X c #C5B849",
";X c #D0B351",
":X c #EFB34E",
">X c #CCBB6E",
",X c #D9A066",
"<X c #AAC265",
"1X c #C8C447",
"2X c #CAC456",
"3X c #D8C451",
"4X c #C7C469",
"5X c #E6C041",
"6X c #173D81",
"7X c #154687",
"8X c #0D5192",
"9X c #325785",
"0X c #186993",
"qX c #30688B",
"wX c #337BA9",
"eX c #1C73A8",
"rX c #505183",
"tX c #75588B",
"yX c #4C748B",
"uX c #766F98",
"iX c #7B7AA8",
"pX c #5171A6",
"aX c #7B3D80",
"sX c #C53983",
"dX c #8F538C",
"fX c #B7588A",
"gX c #AE5791",
"hX c #926C93",
"jX c #A76592",
"kX c #AB5CA3",
"lX c #8A72AC",
"zX c #A868A8",
"xX c #965AA1",
"cX c #C8498C",
"vX c #C5528B",
"bX c #D34994",
"nX c #CB4D92",
"mX c #3686B5",
"MX c #568C95",
"NX c #4A88B2",
"BX c #77B0B2",
"VX c #6B9598",
"CX c #72C4B7",
"ZX c #3C8FC3",
"AX c #7BB9C5",
"SX c #78B6D0",
"DX c #76C4C8",
"FX c #6EC7C9",
"GX c #8DB4B4",
"HX c #A2A2A4",
"JX c #C9B889",
"KX c #98C2A4",
"LX c #85BAC6",
"PX c #99AEC6",
"IX c #82C3C8",
"UX c #C0C489",
/* pixels */
"6XK P u O                   @   O       . . # $ 1 $ # .       O O O @ .   .             X X X X   O               O + H rXK K 7X",
"K P y ; O                 O O   . . # $ $ 3 0 n | | | d & . . @ @   . . . .       O   < HXGXO._ < + +   X           O > t F ' K ",
"[ u ; > O O O                 . $ 4 x %.Z.B.B.n $ $ $ $ 9 3 1 3 $ # # # .   O   O   O O O H GXGXLXAXMX_ + + + +     O O O ; > H ",
"p O O O O O O O       @   . $ 2 %.V.V.Z.z f 4 2 9 b S.D.D.b.c.c.R c.n 9 3 $ # . @ O O O O O < s AXLXBXBXLXLX[ + +     O O O   O ",
"  @ O O         O O @ . # 2 M C.C.Z.h 2 2 l n.vXvXz.z.z.z.x.z.x.x.x.x.c.c.c.m 9 $ #     O + O O + s GXIXDXDXAXDXBXu +           ",
"      +       @ O   # 2 l V.C.G.v.g 2 3 fXfXcXz.z.z.z.z.z.x.x.x.x.x.c.x.c.c.c.R R 3 # .             < O.LXDXDXFXDXIXGXX   +     ",
"    O O O @       # 5 M G.C.C.x 4 4 b.fXcXm.m.sXbXbXvXfXR b 3 3 8 8 8 8 3 3 3 3 b R n # .           + + H LXAXFXFXFXFXDXVX+ + O ",
"      O @   . . # h %.G.H.C.M 4 9 fXnXsXm.bXnXbXcXn.b 8 8 , a Y Q hXhXhXhXtXa 8 3 1 9 | *         O O O O d BXDXFXFXFXFXCXBX_ > ",
"          A   # l C.M.M.C.j 4 b vXcXsXcXbXfXb.R 9 8 8 a ~ W W W W W ^ ^ xXzXzXjXT b 3 1 8 a O O O O O O   X < MXAXDXI.CXCXCXDXBX",
"O   . . } . # n v.M.N.M.z 2 b fXnXbXbXnXl.c.b 8 , a W W ~ E ^ ^ ^ ^ ^ ^ ^ ^ xXzXkXS.R Y & & @ O @ O O O       + O.GXBX{ CXFXFXFX",
"O   o } . # l C.;.N.M.%.5 9 vXnXbXbXn.c.R 9 , , ~ ~ W ~ ^ E ^ E ^ ^ ^ ^ W ^ W / zXzXS.T T 9 & .                 + VXGXBX` CXCXFX",
"    } . # h C.N.,.;.C.f 9 fXnXbXbXl.c.R $ , a Q ^ ^ tXxX/ / ~ W W W Q I I I G Q Q hXzXjXT R Y $ .   .     X       + BXBXBX` CXCX",
"  } A $ 5 Z.;.,.,.;.j 2 b.cXbXbXl.c.T 9 & p lXlXlXlXlXlXlXhXX., : : t r r r r r r r o.hXjXT R R &   .           O O + GXGX` ` KX",
"D A # 2 C.H.,.,.,.&.2 9 vXbXbXl.l.T 8 @ p iXuXP P ! G G r : y y i qXpXyX] ] ] J F i r r a jXT R Y & .     O         + < GXKX . .",
"D 7 1 m H.,.<.,.G.g 4 gXvXnXm.l.R b , r P K K 6XP P y : r i ' 7X8X8XwXZXZXeX7X' K ' K [ i : 8 Y R n & O @ O           + < KXP.` ",
"D # 4 C.;.<.>.;.V.4 l fXvXm.l.c.S., : P K K 7XK J y r t ' 7X8X8X8X8X8X0XmXZXZX7X7X6X' ' ' yX: > Y R a @ O O       X   + +  .GX` ",
"- # M d.>.>.,.M.g 2 D.nXcXl.n.fX8 O F K 6XK K J r t F ' 8X8X8X8X8X7X9X' ' wXNXNX7X7X' 7XK qXNXF : Y R 3             O O + X P.P.",
". 1 C.;.,.>.;.C.2 3 vXbXl.b.gX/ & ; P K K ' P r t 9XmXmXZXZXwXqXF i y u y y i F ' ' L L 7X7XmXNXi > Y n &     . e . O       X GX",
"# g H.<.>.,.$.*.1 b vXsXl.fXS., ; H K K 9XiXt t pXmXmXmXqXi i t t F ] ) ) F F i i t t F L ] eXZXpXy , Y , .   . $ n $ .       < ",
"2 %.;.<.>.=.&.j 2 S.vXl.fXkXU : : P P pXiXp ; F qX0X0X) u u u O.MXBXLXAXMXqXqXqXBX{ > > F ' 8XZXNX] y 8 n .   . $ m m $ #       ",
"5 C.;.>.=.$.C.f 4 jXfXm.kXU a ; I ! lXiXG : i qXqX9Xt > u yXyXyXyXyXO.GXLXSXqX0X0XSXSX_ : y L wXmX' J ; Y .   . . 6 %.x # . .   ",
"g G.:.=.=.$.Z.4 4 fXn.gXdXU : : rXlXuXX.; > qXqX] t ; d p + > : > > + + + < { MX0XwXFXSXO.i y L NXwXJ t @ &     . $ %.%.h # . O ",
"j G.f.$.=.&.Z.4 9 fXb.kXW ! ; ; lXuXrXP ; > { _ +   @ . @ O ; ; ; ;  .+.e = X X s { DXSX{ ..i i wXNXJ G O Y       # v %.5.2 # O ",
"z d.$.=.=.d.V.4 9 fXgXdX! G ; ; tXrX..y ; X._ >   . , o.a } o.G H p + X A UXUX$X= X I.DXAX[ ..F i NXF G > p       . 4 5.#.%.$ @ ",
"@.&.$.=.=.:.V.2 9 gXgX( ! G ; ; ......; O uXO O & a hXa hXuXi F [ P u ;   o UX#X#Xe X _ LXqX[ 9Xy F P G p ; +     . 2 %.$.#.k # ",
"@.$.$.$.=.:.V.2 9 gXkXW ! H ; ; ..rXH O > @ @ , R S.o.lXI P qX9XJ J { [ + X o S 4X4XL.X O.{ 9X9XPX: H H H ; O O O # $ m $.$.#.4 ",
"@.$.$.=.>.d.V.2 9 jXxXU U uXO > [ [ > O O @ 8 a jXb hXG rXqXF qXMXGX{ ) H X = % D >X4X@XX VXrX9XLX_ y H G ; O O O   # k $.$.#.@.",
"x $.$.=.>.;.V.4 6 jXdXW U hXO ; ....; O @ & n S.c.S.X.i O.u BX_ s s s { BXu @ n $ C ;X2Xq X [ 9XAXLXr G H : O O O   # 2 #.$.$.=X",
"j #.$.=.>.;.C.4 4 jXo.( aXhX, ; X.uXO   # l g V.b hXG O.s VXs d = B P.P. .d # l k 1 -X1X>X= d { DXAXt I H : O       . 1 #.$.#.=X",
"f %.$.=.>.;.C.5 2 dXo.( zXT @ ; X.lXO   $ B.z v.l hXp  .s   N A e q #XS A +.. 1 5.4 C 2X1XE.X [ DXIXs : H : O         $ #.$.1.:X",
"f %.$.=.,.;.C.g 1 Y tX( xX/ , O tXhXO # 2 Z.z v.b hXd }   +.} } $XV w JXA N   $ 5.*X1 -X1X2XX [ AXAXG : H t O         $ v #.1.:X",
"4 %.$.=.>.;.H.x 1 , dX( kX~ , @ | S.O . 4 V.z v.S.S.} } 1 +.n } w D C +XV e . $ 1.,X1 @X1X1X- s LXVXG : H ; O         # x #.1.:X",
"1 m $.:.>.,.;.v.1 @ dX( kX~ Y & * |   # 5 V.x Z.D.5 S.$ 6 n Y 9 | 4 v 7.V e # 4 1.%X6 w 1X1Xq X GXO.G : G ; O         # h 1.4.{.",
"$ h $.;.>.>.,.M.4 & a U kX/ Y @ # A . # m 6.&.@.v.c.B.| 2 n | m m 5.7.,Xc # 0 h J.2.k 7 1X1X$X  PX[ G r H ; O         # 5 1.{.{.",
"# 2 %.:.,.<.>.H.m $ & b jX( Q : @     # F.%.6.z &.V.l R 9 0 5.%.5.#.C +X0 $ m j f.2.v 7 1X1X#XX PXP ! r H ; O         . 4 1.5XXX",
"# 1 #.d.;.<.,.;.V.4 $ a jX~ Q H O O   . +Xj 6.&.z %.D.R 3 1 h %.#.5.C 2 1 2 B.g $.2.B.7 1X1X#XX X.! G : p ; O . d .   . 2 T.{. X",
"0 1 5 C.;.<.>.=.d.z $ . / S.W Q @ @   # c 5.&.&.H.z v.D.D.R 6 2 2 1 2 l 4 B.J.g 2.j.k q 1XoX#X. Q ! p d O @ . # } .     * ;XoX(.",
"F.1 2 %.;.,.<.-.;.G.4 1 8 jXW Q Y & . . # ,Xz $.d.&.*.z j l b 4 2 l B.j v 6.x j p.:X2 E.oX1XS % Y Q > p   . # b | $ .   . ;X{.U.",
"9.6 1 f C.;.<.-.-.:.C.4 1 8 / Q o.8 .   . c J.x @.G.&.&.d.H.&.%.5.5.g x $.2.f %X=X4.1 4X1X2X7 n Y a >     . 2 B.B.$ .   % 2X{.3.",
"8.0.$ 1 M ;.>.-.-.>.;.z 2 & I Q ~ hX& .   # A.h.2.z $.=.=.$.f.&.z g #.6.6.z #.&X'.0.w -X1X;X# Y Y O O     # 5 5.B.1 . . q ;XU.y.",
"3.T.6 $ 2 V.;.-.-.-.,.d.j $ @ a Q dXn $   . 1 9.j.j.k.x j j j x j.K.=X*Xz j j.g.T.1 1X1X-XC 0 ! } O O     $ @.&.%.1 # . c }.3.y.",
"y.4.9.1 $ 5 6.:.-.-.>.;.C.f $ & a Q hX9 #   0 2 9.j.h.J.J.9.9.6.p.p.2.j x h.p.'.c c 1X1X@Xo } PXO O     . 1 &.:.%.$ . . +X4.y.t.",
"y.y.8.C # $ g 6.-.-.>.>.;.G.j 2 & , | S.$ # . n 7.6 9.%X&X*X%X7.2.x g 4.3.'.:XE.7 -X3X#X= d HX> O O O   $ z =.=.j $   # 7.4.3.t.",
"t.t.y.8.c $ 1 j :.=.-.>.>.;.G.M 2 $ 1 3 | *     7 JX7.c f f 5 k 0.:X:X:X|.{.C w 2X2X@Xq N GX+ O O O + . 4 6.=.2.5 .   # 7.3.y.t.",
"t.t.t.p.%X6 $ 1 j &.=.>.>.>.;.:.*.2 1 # . , @     . 7.>X;X:X{.|.|.|.:X:X;Xw V 2X@X4X= d HX+           $ j 2.2.:X1     # 8.y.t.t.",
"t.t.t.t.'.&X6 $ 2 j &.:.,.,.>.,.d.Z.g 1 $ # .   O   o * c T.}.}.{.}.C 7 w #X4X4X$Xo P.d O O   .     . 1 2.2.:X:X$   . 7 8.y.t.t.",
"t.t.t.t.].'.%X2 $ $ 5 V.:.;.>.<.,.;.M.&.f 2 # .   X   . . * e 7 7 w S >X4X#XS     d   O O O       # 1 v 3.|.|.;X. . # D 4.t.t.t.",
"t.t.t.t.t.].'.%X6 $ $ 2 z C.d.,.,.,.,.;.d.V.g 1 $ # . . # . .   X o X X . .       . . . . . o   . # 4 ;X|.OX:Xc . . $ 9.p.t.t.t.",
"y.y.y.t.t.].[.'.&Xk 1 $ 1 5 %.G.;.,.=.>.>.;.H.C.x 5 2 $ $ # .           .           $ 1 l | .   . # ;XOX`.OX;X1 . . 1 9.p.t.y.y.",
"8.4.y.y.t.!.].].[.g.A.1 $ $ 1 5 %.d.f.:.=.;.;.;.G.Z.Z.B.n 3 $ .     O O O @ . . # $ 2 5.B.1 .   % +X|.`.`.Q.T.$ . . 6 8.p.y.3.Q.",
"1 9.4.t.t.t.!.].].].i.h.v 4 $ # 1 1 f x 6.&.6.C.C.C.V.V.B.F.| e %       O   # 1 f 5.6.5.2 #   o C 5X`.~.W.Q.c #   % 8.y.y.3.U.).",
"# 1 9.p.y.u.!.!.~.!.a.s.j.h.k $ # # $ 1 2 4 f f g f g f 4 1 $ $ . . . # # $ 6 +X&X*X*X5 # # . $ :X).W.W.u.g.1 . . $ 8.y.3.U.).XX",
"% . 1 9.8.t.i.!.!.~.~.a.a.i.'.'.1.6 1 1 $ # # $ $ $ $ $ # # # # # 1 1 h 9.%X'.'.&X*X2 # . $ 6 '.Q.u.a.s.p.v $ . # 5.8.Q.U.XX).).",
"$X% . 1 7.8.p.].].~.s.a.a.a.a.i.i.g.*XA.c 1 $ $ $ $ 1 $ 1 2 4 5 5.J.=Xh.[.[.[.'.%X6 . . # 4 h.i.a.a.a.i.J.2 . . $ 7.U.Q.XX X X(.",
"}.R.% . . c 9.'.].!.~.s.a.a.a.a.s.s.i.[.'.'.&X&Xj.6.j.q.q.q.q.q.q.q.r.w.w.q.f.5.1 . . # h g.i.a.a.a.a.j.k #   . C U.}.XX X X X/.",
"(.}.@X- . # $ 7.&X'.].].s.a.a.a.a.a.a.a.~.~.s.].[.k.w.w.e.e.e.e.e.e.r.w.q.6.g 1 # . # k g.i.a.a.a.a.i.9.$     - T.{.XX X X/././.",
"_./.}.-Xw % . $ 6 +X%X'.].a.a.a.a.a.a.a.a.~.~.!.!.~.k.a.w.e.e.e.e.r.q.6.5.2 # # # 1 1.g.i.a.a.a.a.i.%X2 . .   @XoX XXX(./.^.^.^.",
"_.^./.(.}.+X% # # # 1 9.'.[.i.i.s.s.a.a.a.a.a.~.!.].].[.k.q.w.q.q.f.v 1 $ # # # 6 8.i.a.a.a.a.a.s.g.h # .   q 1X X X/./.^.^./._.",
"^.^.^./.(.}.}.w # . # # $ c 9.h.h.j.i.i.i.i.i.i.!.!.].[.=X*X*XA.h 2 $ # . # 1 v g.!.a.a.a.a.u.u.g.1.$ . X X 2X X X/. X/.^.^.(.(.",
" X/.^.^.^./.(.}.@Xq . . . . 1 1 4 h 1.9.h.h.h.h.g.'.&X1.h 2 1 $ # # . . # c T.Q.W.W.u.W.W.~.|.:X+X$ .     4XoX/. X/. X X^./.}.Z ",
"XX/._._.^.^.^./.(.}.R.Z 7 % . . # # $ # # $ $ 1 $ $ # # # . . . . # 7 E.{.OX).OX.X`.`..X.XOXOX-X# . . . Z R./. X^.^././.^.).@X# ",
"0.{.).).(./.(.(.(.(.}.}.-X>XD o . .       . . . . .         . . D >X3X5XXX.X.X.X.X.X.X.X.XXXR.- . . . V @XY.Y.Y.Y.(.(.(.(.}.C . ",
"f 1.;X;X-X}.-X@X@X-X-X@X-X2X2X2X4X4X$XA e 0 * * * % e A S JX>X>X>X>X;X;XOXXX.X.X.X.X.X.X XE.o X X X e #X@X@X@X@X@X@X@X@X;X@X.   ",
"6.6.v v 7 # % % % % # * # % Y.Y.R.L.o   . . . . . % % - % % $ $ 1 $ $ 7 Y.XXXX X)..X.X.XXX1X@X$X$X<X- X X L.#X<X<X<X#XL.V w .   "
};
