/* XPM */
static char *c7e3792f98dc41b8ed7028d9112c43a581BYTFzit5bnF9Dr[] = {
/* columns rows colors chars-per-pixel */
"64 64 256 2 ",
"   c #030202",
".  c #0B0102",
"X  c #020B01",
"o  c #02020B",
"O  c #0C010A",
"+  c #000C0C",
"@  c #0B0902",
"#  c #140101",
"$  c #1B0101",
"%  c #14010B",
"&  c #180904",
"*  c #031402",
"=  c #171402",
"-  c #020214",
";  c #0A0013",
":  c #02031C",
">  c #0B011B",
",  c #000A1C",
"<  c #000C14",
"1  c #130014",
"2  c #17011A",
"3  c #001417",
"4  c #18181C",
"5  c #240101",
"6  c #2C0100",
"7  c #270606",
"8  c #330101",
"9  c #3A0100",
"0  c #390705",
"q  c #251702",
"w  c #351602",
"e  c #260218",
"r  c #370318",
"t  c #2C1516",
"y  c #132411",
"u  c #2F2B07",
"i  c #010323",
"p  c #000C23",
"a  c #050928",
"s  c #011428",
"d  c #031A36",
"f  c #130E2E",
"g  c #2F0D2E",
"h  c #0B2A34",
"j  c #2E2A2F",
"k  c #430100",
"l  c #4A0101",
"z  c #570302",
"x  c #471604",
"c  c #52140B",
"v  c #670301",
"b  c #651903",
"n  c #71100D",
"m  c #512C0B",
"M  c #72300D",
"N  c #4A122E",
"B  c #512933",
"V  c #6E332F",
"C  c #6D1D2C",
"Z  c #364334",
"A  c #784A15",
"S  c #544D2F",
"D  c #764D31",
"F  c #766933",
"G  c #5A5B1E",
"H  c #0D1B44",
"J  c #371844",
"K  c #032545",
"L  c #18375A",
"P  c #0C304F",
"I  c #342B5A",
"U  c #36345A",
"Y  c #2C2F50",
"T  c #1A3A69",
"R  c #1A3C78",
"E  c #093A69",
"W  c #263969",
"Q  c #363565",
"!  c #263974",
"~  c #352C65",
"^  c #4F1B55",
"/  c #761C4D",
"(  c #482759",
")  c #473859",
"_  c #55345A",
"`  c #512B4B",
"'  c #692B49",
"]  c #75284D",
"[  c #782753",
"{  c #6F354E",
"}  c #571C65",
"|  c #641F72",
" . c #5B2869",
".. c #463A65",
"X. c #503065",
"o. c #672A68",
"O. c #652774",
"+. c #693268",
"@. c #344954",
"#. c #18437A",
"$. c #124773",
"%. c #375A79",
"&. c #2F4C6D",
"*. c #326678",
"=. c #185869",
"-. c #4F5452",
";. c #704E4D",
":. c #75734E",
">. c #4A5476",
",. c #4E4E6F",
"<. c #6C4D6C",
"1. c #4C6E71",
"2. c #706779",
"3. c #8C2D11",
"4. c #AC3515",
"5. c #983B36",
"6. c #8A332F",
"7. c #AF3830",
"8. c #8E1814",
"9. c #C93A37",
"0. c #D93B37",
"q. c #D3382B",
"w. c #E6352C",
"e. c #E73637",
"r. c #EE2F35",
"t. c #C1351E",
"y. c #914D33",
"u. c #BB4438",
"i. c #AE5033",
"p. c #8F7331",
"a. c #B66D31",
"s. c #966017",
"d. c #D95317",
"f. c #D35114",
"g. c #E94E08",
"h. c #D97A18",
"j. c #D7780C",
"k. c #E87606",
"l. c #E47913",
"z. c #EF720B",
"x. c #C5433A",
"c. c #CB4F30",
"v. c #CA7B29",
"b. c #D67929",
"n. c #C87837",
"m. c #D06E32",
"M. c #EA5F2F",
"N. c #871D55",
"B. c #8A1C53",
"V. c #852454",
"C. c #882B4C",
"Z. c #AA3A49",
"A. c #94316B",
"S. c #AA3978",
"D. c #D03D44",
"F. c #E43B40",
"G. c #8E5550",
"H. c #B84848",
"J. c #AA4E50",
"K. c #916E54",
"L. c #B27249",
"P. c #915674",
"I. c #B25876",
"U. c #AF6C73",
"Y. c #8B696D",
"T. c #C84545",
"R. c #CA4E53",
"E. c #C67B46",
"W. c #D56B64",
"Q. c #728466",
"!. c #9B8434",
"~. c #B28F32",
"^. c #B1AC3B",
"/. c #EB861C",
"(. c #F2861A",
"). c #EB8109",
"_. c #D38932",
"`. c #E98826",
"'. c #E98930",
"]. c #DBB93D",
"[. c #E5BD38",
"{. c #EDBA32",
"}. c #CC8615",
"|. c #C9C33A",
" X c #EEC53A",
".X c #8F9251",
"XX c #B19551",
"oX c #B7B652",
"OX c #948F69",
"+X c #B6B16F",
"@X c #AB9B63",
"#X c #D78946",
"$X c #D08952",
"%X c #E68C4C",
"&X c #C7BB48",
"*X c #D7BD46",
"=X c #D1B656",
"-X c #EDB650",
";X c #CB9168",
":X c #D2B56E",
">X c #EAAF71",
",X c #BCC357",
"<X c #BBC36B",
"1X c #C8C644",
"2X c #C4C557",
"3X c #DCC44D",
"4X c #CFC368",
"5X c #E3C26F",
"6X c #E9C149",
"7X c #193C81",
"8X c #0B4686",
"9X c #174585",
"0X c #0A5698",
"qX c #105391",
"wX c #2C5782",
"eX c #1B6A92",
"rX c #306B89",
"tX c #3579AC",
"yX c #1361A4",
"uX c #6E5788",
"iX c #517090",
"pX c #6E7290",
"aX c #5E72A1",
"sX c #935792",
"dX c #B75888",
"fX c #A95A97",
"gX c #B2568E",
"hX c #8F6B92",
"jX c #A66595",
"kX c #8F71A9",
"lX c #A866A8",
"zX c #CA4C8D",
"xX c #3A8DB8",
"cX c #3D838F",
"vX c #568698",
"bX c #6D9093",
"nX c #5486A6",
"mX c #4389B7",
"MX c #4A89A9",
"NX c #6D92AB",
"BX c #73A9B5",
"VX c #358DC6",
"CX c #338EC6",
"ZX c #7BBBC8",
"AX c #458FC8",
"SX c #75C3CB",
"DX c #8AB8B8",
"FX c #90B1B1",
"GX c #AAB5AB",
"HX c #AB9D88",
"JX c #CFB389",
"KX c #E4AA8C",
"LX c #88B9C7",
"PX c #8FB0C9",
"IX c #83C2CA",
"UX c #BFC096",
/* pixels */
"r.e.e.e.e.x.J.8 6 r A.zXzXzXA.B.B.V.[ ] j O O 1 2  .O.O.| O.} O.O.O.O.O.O.O.O.lXlXlXlXA.[ [ N.N.V.' 7 $ $ ` g 1 o               ",
"r.e.e.e.0.u.z 8 r ] zXzXzXB.B.V.V.] [ N % O % e X. .| | O.O. .O.O.| O.O. .O. . .lXlXlXlXsX[ N./ V.[ ' r 5 $ ;.% o       .       ",
"e.e.e.0.T.8.9 8 [ dXzXS.B.B.N./ [ ' e % 1 1 _  . .O.O.O.| O.| | O.O. . . .o. . . . .lXjXlXfX[ V.V.V.] ' B e $ B     O O     @   ",
"r.e.e.x.H.k 8 r dXdXA.B.V.V.V.[ ' r 1 O 2 _  .sXsXsXsXsXO.O.O. .X.X.X.( J g g J J _ X.kXjXjXjX] ] V.V.[ ] ' $ # j @         @   ",
"r.r.0.x.c 6 7 P.dXA.B.V.B.V.[ ] e % ; g hXhXkXkXlXlXkXkXkXkX<.g 2 > i : > - - - ; - > > 2 ` hXjX] ] [ V.] { B 5 .   O         o ",
"r.w.0.u.8 $ r jXV.N.V.V.N.[ ] r % ; a pXkXkXkXkXuXsXkXkX) > > > : a s s p s s s p p : i i : ; e <.{ [ [ ] ] ' B $ O O     @     ",
"e.0.T.l 6 e sXP.N.N.V.V./ A.N 1 - : aX! ! ! W W ~ Q f i : : i d $.MXmXmXmXeX$.$.T T #.! W H a i > 2 ` ' ] ] [ ' B %             ",
"0.x.H.9 5 e gXN.N.B.B./ dXP.2 ; i W R R 7XR #.W W a i i i K wX9X8X0XtXCXCXCXAX8X8X#.#.R #.R T iXK i ; 2 ' { ] [ ' r O     @     ",
"0.x.C 6 5 P.[ N.B.B.A.dXjXe 1 : L R 7X7X7X#.! L i i a K #.qXqX0X0X0X0X0XCXCXCXVXeX$.8X9X9X8X8X$.tXNXd - 2 N [ [ [ ' %   . .     ",
"0.H.9 5 5 { V.B.B.I.gXgXN 1 - d #.#.7X7X9XR H a a a T wX8X0XyX0X0X0X0X0XqX0XVXxXxXtX8X8X8X8X8X8XtXmXMX&.: > g [ ] ' ` % .   @   ",
"D.7.8 # r [ / B.dXgXgX' 1 > i W T #.R ! T d i p d %.tXtXyX0X0X0XqX8X#.E P K E rXmXmXtX8X9X8X8X8X8XVXxXMXL a > e { ] ' e #       ",
"T.Z.5 % r [ V.N.gXgXfX` ; - i W #.R ! ! L d : p K rXtXeXeXqXeX9X9X#.$.L K d L rXnXtXtX#.R #.9X#.8XVXCXxX$.a - 2 ' { ' r .       ",
"H.n $ % B ] N.gXgXfX^ g > : P #.R R ! W d - p d mXxXxXxXMXnX%.d s , - , , p : p i s d &.T T R R 8XyXCXCXeXT s - e ' ' { %       ",
"J.k $ % ' [ S.gXA.^ ( i - i W ! ! ! NX>., , d nXxXxXcXrXd p p , < 3 3 < h h d s p p , p p s W #.#.$.VXVXmXE W a ; B { ' e O     ",
"J.8 5 $ [ V.fXfX} ( g - : f W ! aXkXpXi : , *.rXrX&.s p , < p d NXLXLXLXDXIXrX*.rXrXnXh p , a a #.$.eXVXAX9XW Y > 1 ` ' hX1 1   ",
"G.6 $ e [ gXfX} } X.i - : Y Q kXkXkXf : , &.*.*.K p , o o j 2.iXiXiXBXLXLXZXSXBXeXeXrXZXZXP , p s L $.mXAXtX! I J > e _ hX1 O   ",
"V 5 $ N A.gXsX} ( I - , : uXkXkXkXJ - , h %.@.p - < o       o o : - < + 3 P FXLXSXrX*.MXSXZXNXs , p K MXmXmXT W I f > j <.` % . ",
"B $ e ` fXfX} ( I U - - Y kXkXpX<.a o o >.%., - -   O O .   O ; - -     o < + + 1.IXcX*.SXSXLX%.h , s $.MXmXT W Q Y > > _ hX% . ",
"q # % P.jX} ( I I h - - uXkX,.,.a - ; j 4 o o o % $ e <.hX` g 2 2 ; - o o   X   + + h BXvXSXSXZX%.%.: : L nXwX! W Q J ; g hXO   ",
"@ . e hXjX^ I ~ U a - : kXuX,.,.: o o j O O % . 7 Y.hXg J <.....) ,.Y o <   j GX4 X X + bXIXZXZX%.%.>., , &.iXT W I U > ; hX4   ",
"  % 1 hXuX( I Q I i - - >.>.,.h - o     # 5 g B sX<.J <.pXkXuXd d d d d U ,   @ OX@XF X * s LXLXNX%.>.>., p iXW W ~ I f ; hXY o ",
"  . 2 hX( ~ ~ ~ I > - : >.&.>.: o     # 5 { l jXsX^ uXuXQ d W &.&.&.nX&.P s -   & OXF UXX X s DXLXrX%.>.NX3 p L ~ ~ I Y > ) -.O ",
"O O 2 uX~ ~ ~ I <.> ; : >.>.U , o O . $ ;.0 I.dXg hXQ H P iXiX%.P K P rX1.Y , o @ = JXF JXq X 3 LXiX%.wXLX1.: d Q ~ ~ I > 2 2.1 ",
"  O ; uXQ ~ ~ ( hX2 > : >.>.a o   % # ;.0 U.I.] sX( Q P rX%.K P BXBX*.*.h h @.-   . = JXF JX@ X 1.DXwXwXLXLXp i Y ~ I Y > ; hX1 ",
"t O 1 U ~ ~ ( +.hX2 > - >.,.- o   # 0 V z I.dXg X.aXd wX%.d NXvX&.@.1.1.*.PXs Y o . # m A ;XJX= * bX%.%.IXLXNXa H U I Y j - pX; ",
"j % o f U I X.lXhX2 ; : >.,.o   . $ D 6.J.I.gXg uXY L iXs 1.h h bXFX1.-.3 bXiXh - O $ 5 y.s.:X+XX 3 &.%.ZXLXPXa a Y U U ,., -.o ",
"B $ O > I I  .jX<.> - , ,.@.o   % $ y.n R.Z.[ ` uXa pXh -.+ 3 + + y = :.HXy FX@.4 . ;.5 0 A =X4Xu X @.%.IXZXLXL i Y Y W iX: 4 o ",
"G.5 O - U ( +.jX_ 2 ; o ,.j o   # 0 5.v R.Z.' _ ,.- -.X X -.-.-.:.= S F Q.S y -.4 @ V x 6 A &X=X+X@ 3 &.IXZXLX&.: Y Y W aXp o   ",
"G.8 % - Y ( jXjX+.2 O o ) 4   . ;.c J.n Z.Z.] { <.  -.X S S -.Q.S OX= S @XG UX-.  . x D 6 7 ~.^.:Xu X 1.ZXLXPX&.i a L L NXp o   ",
"J.9 # ; g ( jXsX_ g o ; g ; O . D C u.8.Z.I.P.r Y.O -.& B ;.-.-.S :.q m JXu UXu   # 0 G.8 7 p.~.=X+XX @.ZXZXPX&.f i T &.aX, -   ",
"H.z 5 O > ( jX+.o.` ; o o o . # V n u.4.8.I.dXr Y.t t j B N 5 B t K.5 G.p.F +X= . # 6 U.D 7 s.^.1X2X* + DXLX>.,.Y i $.iXvX, o o ",
"T.5.6 % 1 ` fXo.o._ ; o   O   # G.b u.x.v I.I.N ;.;.$ { { { N B ;.B V D A p.:.u . # 5 KXy.6 s.~.1X2X= X DXLX&...U i L nXvX, o o ",
"D.Z.8 # % ` jXo. ._ O       . $ G.b x.9.v I.dXN ;.V 5 V { { N B ;.m V D A p.K.u . # 7 KXy.8 s.~.|.2X* * DXPX&...U a L nXvX, o o ",
"D.T.9 5 # g sXo.+._ ; O     . # K.z c.9.v 6.I.dX0 ;.6 8 V J.C l V b z L.;XF S ;.. $ 8 KXy.k m !.1XoXG * DXPX&.....i =.nX1.< o @ ",
"0.D.C 5 $ e sX+. .X.2 o       # OXl c.t.u.v I.I.C.8 G.6 C 6.n v 6.3.y.b KXw ;.$ 7 8 k y.i.l x p.*X2XQ.* DXPX....) a aXnXP - o   ",
"0.9.H.9 5 $ ` o. .X.I ;       . K.M u.t.7.4.v Z.I.G.0 r 9 C n n 6.W.i.>Xp.HX# $ ;.9 n i.i.l 0 p.&X&X.X* FXiX......i nXnXs o     ",
"w.0.T.v 5 # 2 +.X.X...- o     . K.;Xv u.t.x.8.v I.U.I.0 6 6 ;.G.G.m KXD OX# # w HXk 7.u.5.k x p.*X2X.XX GX@.....) i iXnX, o     ",
"e.q.0.H.9 $ % g X.X.X.f -     # w U.y.n 4.t.x.5.z C.I.U.G.8 6 8 x 8 5 $ $ 7 7 ;XV k i.4.KX0 m =X*X&X.X  HX,.Q ..f i nX&.< o     ",
"w.e.e.T.6.6 # O ) ) X.) o   O . 7 L.;Xv 3.x.7.R.7.v z z C { V 8 8 6 8 B x 8 L.y.9 k s.n.>X6 A &X].2XF . ) ..Q ,.i d pXs < +     ",
"r.r.e.0.H.k $ . ; ) _ _ > O   . & m $X$Xv v u.u.7.7.i.5.C n z c V G.G.k k y.i.6.k s.-X-XM 7 oX1X1X,Xm . ) ..&.PXp >.pX< o       ",
"r.r.e.0.9.J.8 $ O 1 _ _ <.O     = 7 ;X$Xn.3.z 5.u.7.7.7.u.H.5.y.y.V l z y.i.i.z z >X%Xv.w @ &X|.|.2X@ 4 ,.Q PXbXs pXs + o   o   ",
"r.r.w.0.x.7.z 6 # O 2 ` <.4 O . . K.0 ;Xn.E.a.v v n 8.4.4.7.4.v z z n i.i.i.b z >X_.v.a.5 p.|.|.1X<XX Y @.FXPXs s Y +     o   O ",
"w.e.w.w.0.9.H.l 5 O 1 2 _ 2.% O . t w x $Xn.m.m.m.3.z z z z v v c.%XW.W.;X3.k a.v.v.n.x 5 :X&X1X2X.XX @.FXLXNX3 pX<     o   . # ",
"0.q.e.w.w.0.9.Z.8 $ % O 1 <.j % . . HXm x E.n.m.b.b.%X$Xi.i.m.c.c.c.i.i.z k a.v.b.v.L.6 XX&X1X1X<X* y FXDXLX< < < o     O # ;.# ",
"7.9.w.w.w.e.F.D.n 8 $ . O O <.% O # @ HXG 0 a.E.n.v.v.'.%Xm.a.m.i.i.M k l a._.h.}.#X6 w &X&X1X,XQ.* FXDXDX1.+ 4   @ @   # 7 S $ ",
"z H.9.e.w.w.e.D.H.5.8 5 . O O % O     @ HXJXx 9 M a.v.v.#X#X#Xa.b k 0 A a.v.}._.>Xw 7 :X&X|.oX<X* j FXDXBX+ o o       # 5 G.m # ",
"8 k 7.9.0.w.e.e.0.T.H.9 5 # .         . = +X5X=XA 0 0 0 8 8 8 0 m a.-X6X{.{.-X=Xw $ oX2X|.1X,Xu * DXDXDX+ + o       O $ x y.w $ ",
"$ 5 k 5.x.x.e.r.e.0.T.H.k 5 $ .     . . # # XX4X:X:X:X=XXX=X:X=X-X[.[.[.[.].=Xu = @X&X1X1X,XG * bXDXDXs +           # 7 y.>X5 # ",
". # 5 8 5.x.0.e.e.e.0.9.H.n 6 $ . . . .   . . q :X:X=X*X*X[.]. X[.[.[.].5X!.= u 2X2X1X1X,XG * Q.DXDX+ X           . & F :X:X# . ",
"$ # $ $ 9 5.T.0.0.0.e.e.0.T.6.8 5 # # .       @ . m oX3X3X*X*X3X3X3X].s.q & p.,X,X,X2X,Xu * Q.FXFX3         @   . . w :X5X!.& . ",
";X6 # # $ 6 z H.x.0.e.e.e.0.T.H.k 6 5 # .       # S q = = q q q = & = u ^.,XoX2X2X4X.X* * GXFX@.+       o     . . = 4X3X5Xm # . ",
"$X;Xw $ # $ 5 9 y.T.9.e.e.e.0.T.H.5.8 5 #     . . . t HXOXS S G G @X+X.X^.,X,X4X.Xq X Z FXFX+ +     o o o o   . # :X3X X4X& . . ",
"_._.;Xm $ # # $ 8 z Z.D.F.0.0.0.9.T.J.6.5 # .         . @ u :..X.X@XoX,XoXG = @ = -.GX@.X X + o     o   o   . # p.*X X[.oX@ .   ",
"`.'.#Xb 6 $ . # $ 9 J.H.T.x.0.0.0.0.T.5.9 5 $ .     O .   u :.OXOX.X<X+X+XS     = -.GX@.  X             o . # $ s.[.{.6X+X@ .   ",
"`.'.'._.s.8 $ . # # 5 l J.u.x.0.0.0.0.T.H.6.8 5 # . .   .   X   X @ X X X X   Z =   o o o           o   O . # w 3X{. X_.m .     ",
"`.`.`.`.v.a.m 5 # $ # 5 8 l v H.T.T.T.T.H.J.J.G.t # . O               @               o                 . # q 5X-X{.}.~.5 . .   ",
"`.`.`.`./.h.v.a.0 5 5 # # $ 5 6 9 l V G.J.J.G.G.Y.Y.;.& .             o               . . . .         . . $ 5X-X}.}._.s.$ .     ",
"`.`.`./.(.k.h.b.n.L.6 5 $ $ # # 5 5 5 6 8 6 8 6 6 5 7 . . .   .         % .   . # # # $ t HX.         # 7 >X}.}.j.h.E.6 #     . ",
"`././.(.(.l.k.j.j.h.v.n.c 6 $ $ # # $ # $ $ $ $ $ # .     O . .       . . . # # $ 5 G.;XHX# .     . $ 6 $Xv.j.j.l.b.L.5 # O     ",
"l.`./.(.(.(.z.k.k.j.j.b.n.$XXXA 6 $ $ $ $ $ $ $ $ $ # # # # $ $ $ $ $ $ 5 6 w K.;X;X;XG.# %     . $ 0 L.b.l.k.k.h.n.8 $ % . . j ",
"j.`.`./.(.(.z.k.k.k.z.l.h.b._._.#X$XL.M 8 6 6 6 8 9 9 9 8 8 8 8 k k b L.$X%X%X$X$X;Xm $ O O   # 5 8 n.b.l.k.k.l._.s.$ # . . # K.",
"v._.'.`.`.(.(.k.k.k.k.k.z.k.j.`.`.'._.#X$X$X;XL.L.L.i.i.i.a.L.i.c.c.c.c.f.f.c.a.p.w # #     # $ b E.b.l.k.z.k.h.a.6 $ . . # m !.",
"x L.#X_.`.`.(.l.k.k.k.k.k.k.k.k.l.`.`.`.'.'.%X'.m.m.f.f.d.d.d.d.d.d.d.d.d.c.i.M 6 # .   % # 5 A n.b.l.k.).k.l.b.A $ . .   . !.&X",
"6 8 b %X'.`./.(.k.k.k.z.k.k.k.k.k.l.(./.`./.`.'.'.l.z.g.g.g.g.g.g.g.g.g.d.4.z 8 $ .   O . 5 L.E.b.l.k.k.j.j.h.m.8 $ .   @ :.=X]."
};
