/* XPM */
static char *_33fb5eb0bc54923e277431efb781b65c6Cox7RWyMk5k4Nu[] = {
/* columns rows colors chars-per-pixel */
"64 64 156 2 ",
"   c #030303",
".  c #070803",
"X  c #090906",
"o  c #070709",
"O  c #0A0A0A",
"+  c #10100E",
"@  c #141413",
"#  c #191917",
"$  c #1A1A19",
"%  c #21211F",
"&  c #242423",
"*  c #272823",
"=  c #282926",
"-  c #2C2C2B",
";  c #2F302B",
":  c #31312F",
">  c #353534",
",  c #393937",
"<  c #3C3C3B",
"1  c #444443",
"2  c #494947",
"3  c #4A4A49",
"4  c #50504E",
"5  c #555555",
"6  c #585856",
"7  c #575759",
"8  c #5B5B5B",
"9  c #646464",
"0  c #696967",
"q  c #6C6C6C",
"w  c #71716F",
"e  c #6F6F71",
"r  c #737373",
"t  c #787876",
"y  c #7B7B7B",
"u  c #81817F",
"i  c #828282",
"p  c #8D8D8C",
"a  c #91918F",
"s  c #939393",
"d  c #999997",
"f  c #9C9C9C",
"g  c #A1A29E",
"h  c #A4A4A3",
"j  c #A9A9A7",
"k  c #ABABAB",
"l  c gray69",
"z  c #B3B3B3",
"x  c #B4B4B4",
"c  c #B6B6B6",
"v  c #B7B7B7",
"b  c #B4B4B4",
"n  c #B9B9B9",
"m  c #BABAB8",
"M  c gray73",
"N  c #BBBBBB",
"B  c #BCBCBC",
"V  c #BFBFBD",
"C  c #BFBFBF",
"Z  c #BBBBBA",
"A  c #C0C0BE",
"S  c #C1C1BF",
"D  c #C0C0C0",
"F  c #C1C1C1",
"G  c #C3C3C1",
"H  c #C2C2C0",
"J  c gray76",
"K  c #C3C3C3",
"L  c #C4C4C2",
"P  c #C5C5C3",
"I  c gray77",
"U  c #C5C5C5",
"Y  c #C6C6C4",
"T  c #C6C6C6",
"R  c gray78",
"E  c #C6C6C4",
"W  c #C9C9C7",
"Q  c #C8C8C6",
"!  c #C8C8C8",
"~  c gray79",
"^  c #CACACA",
"/  c #CBCBCB",
"(  c gray80",
")  c #CDCDCD",
"_  c #CECECC",
"`  c #CFCFCD",
"'  c #CECECE",
"]  c #CDCDCC",
"[  c #D0D0CE",
"{  c #D2D2D2",
"}  c LightGray",
"|  c gray84",
" . c #D7D7D7",
".. c #D3D3D2",
"X. c #D9D9D6",
"o. c #D8D8D8",
"O. c gray85",
"+. c #DADADA",
"@. c gray86",
"#. c gray87",
"$. c #DFDFDF",
"%. c #DEDEDC",
"&. c #DCDCDA",
"*. c #E1E1DE",
"=. c gray88",
"-. c #E1E1E1",
";. c #E3E3E1",
":. c #E2E2E2",
">. c #E4E4E4",
",. c gray90",
"<. c #E7E7E5",
"1. c #E6E6E3",
"2. c #E7E8E3",
"3. c #E8E8E6",
"4. c #E9E9E7",
"5. c #E8E9E6",
"6. c gray91",
"7. c #E9E9E9",
"8. c #EAEAE8",
"9. c #EBEBE9",
"0. c #ECECEA",
"q. c #EDEDEB",
"w. c #EEEEEC",
"e. c #EFEFED",
"r. c #EFEFEF",
"t. c #ECECEC",
"y. c #EDEDEB",
"u. c #EFF0EB",
"i. c #F1F1EF",
"p. c #F0F0EE",
"a. c #F3F3F1",
"s. c #F3F3F3",
"d. c #F4F4F4",
"f. c gray96",
"g. c #F6F6F4",
"h. c #F7F7F5",
"j. c #F6F6F6",
"k. c gray97",
"l. c #F5F5F4",
"z. c #F8F8F6",
"x. c #F9F9F7",
"c. c #F6F6F8",
"v. c #F8F8F8",
"b. c #F9F9F9",
"n. c #FBFBF9",
"m. c gray98",
"M. c #FBFBFB",
"N. c #FCFCFA",
"B. c #FDFDFB",
"V. c gray99",
"C. c #FDFDFD",
"Z. c #FEFEFC",
"A. c #FFFFFD",
"S. c #FEFEFE",
"D. c white",
"F. c #FEFEFD",
/* pixels */
"X   X X   X   y C.C.C.C.C.C.N.U &   X X X X   & ^ C.C.C.C.C.C.C.r       X X     9 c.C.C.C.C.C.C.+.-   X X   X   # c C.C.C.C.C.C.",
"X   X X X X   y b.C.C.C.C.C.N.W &   X X   X   & U C.C.b.C.C.C.C.r   X O o o     9 f.C.C.C.C.C.C.| -   X X   X   # m C.C.C.b.C.C.",
"  X X   X o   y C.C.C.C.N.C.N.U &   X X X X   & U C.C.b.C.C.C.b.r     X   X X   9 f.C.C.C.C.C.C.+.-   X X X X   $ m C.C.C.C.C.b.",
"X X   X   X   y C.C.C.C.N.C.C.P &     X X     & ` C.C.C.C.C.C.b.r X     X X O   9 f.C.b.C.C.C.C. .-     o X X   $ c C.C.C.b.C.C.",
"X     X   X   i C.C.C.C.C.b.C.F &     X X     & U C.C.C.C.C.C.b.y   X   X       8 f.C.C.C.C.C.b.+.&   X O O X o $ C b.C.C.C.M.C.",
"              t C.C.C.C.C.N.C.` @             @ ` C.C.C.C.C.C.C.q               9 C.C.C.C.C.C.C.;.&               m C.C.C.C.C.C.",
"q r r r q r r p s s p p a a p p t r w w w q w t s p p p s s p s i r q q q r r r y s s p s s p s s t q t t r t q t s s p p p s s ",
"C.C.b.C.C.C.C.s               < z.C.C.C.C.C.C.f.<               s C.C.C.C.C.C.C.c               - e.C.C.C.C.M.C.C.3             ",
"C.C.b.C.C.C.C.d O X X X X     3 3.C.N.N.N.N.C.;.3     X X   X + s C.C.C.C.b.C.C.l @   X X X O   , ;.C.b.C.C.C.C.b.7   X X X X X ",
"C.C.C.f.C.C.C.d X o X   X X   1 0.N.C.C.C.C.N.<.1   X X   X o X p C.C.C.b.C.C.b.j #     o   O   < ;.C.C.C.C.b.C.f.8     X X   O ",
"C.C.C.C.C.b.C.s o o o   X     3 p.C.C.N.N.C.C.8.3     X   X o   s C.b.C.C.C.C.C.k @ X X X X     < $.b.C.C.C.C.C.s.7       X     ",
"C.C.C.C.C.C.C.s O     X X     2 0.C.C.C.C.C.C.3.1   X X X X   X p C.C.C.C.C.C.C.k @       X     , $.C.C.C.C.C.b.C.8   X     X X ",
"C.C.C.b.C.C.C.f @   X O   O   1 e.N.b.C.C.N.C.8.1   O   O O   O s C.C.C.C.C.C.C.j @     X   O   < ;.C.M.M.C.C.C.s.7   O X X X X ",
"C.C.C.C.C.C.C.s               1 a.C.C.C.C.C.C.e.1               s C.b.C.C.C.C.C.c               > 8.C.C.C.C.b.C.C.5             ",
"C U F F U U F s 1 1 1 1 2 1 1 9 C A P F A P A m 9 1 1 3 1 1 1 1 s F U F F U F F s 1 1 1 1 3 1 1 9 c F F U F U F C q 1 1 1 1 1 3 ",
"              y C.C.C.C.N.C.C.` %             $ ` C.C.C.C.C.C.C.r               8 C.C.C.C.C.C.C.;.&             @ m C.C.C.C.b.C.",
"  X     X     y C.C.C.C.C.C.C.U &   X   X X   & U C.C.C.C.C.C.b.t     X X X     9 C.M.C.C.C.C.C.+.-   X   X     # m C.C.C.C.C.C.",
"  X X         y C.C.C.C.C.C.C.U &   X     o   & U C.C.C.C.C.C.b.r   X     o     9 f.C.C.C.b.C.C.+.-   X O X X   $ c C.C.C.C.C.C.",
"O   X X X X   y C.C.C.C.C.C.C.U &   X     X   & U C.C.C.C.C.C.C.r     o O O     9 b.C.b.C.C.b.C.+.-   o   X X   $ c C.C.C.C.b.C.",
"X   X X       i C.C.C.C.C.C.C.U &   X X X     & U C.C.C.C.C.C.C.t     X X X     9 f.C.C.C.C.C.C.| -   O O X X   # m C.C.b.C.C.C.",
"o O X   X X   y C.C.C.C.C.C.C.U &     X X     & U C.C.C.C.C.C.C.q   o X   X O   9 s.C.C.C.C.C.C.| ,     X   o   $ l C.C.C.C.C.b.",
"X X   X O     y C.C.C.C.C.C.b.U &       X     & U C.C.C.C.C.C.C.r     X X X X   8 C.C.b.C.C.C.C.+.&   X   O X   $ C C.C.C.C.b.C.",
"              y C.C.C.C.C.C.C.} $             $ } C.C.C.C.C.C.C.q               9 b.C.b.C.C.b.C.$.&             O m C.b.C.C.C.C.",
"< 1 < < < 1 < i ^ ^ ^ ^ ^ U ^ j 5 < 1 < < 1 < 5 j ^ U ^ ^ ^ ^ U y < 1 < 1 1 < < t ^ U ^ U ^ ^ U l 7 < < 1 < 1 < 3 f U ` U U ` U ",
"C.C.C.C.C.C.C.d               1 p.C.C.C.C.C.C.e.1               s C.C.C.C.C.C.C.k X             , <.C.C.C.C.C.C.C.6             ",
"C.C.C.C.C.C.C.d O         X   1 0.C.N.C.C.N.C.8.1       X       s C.C.C.C.C.C.C.l @             , ;.b.M.C.C.C.C.f.7   X       X ",
"C.C.C.C.C.C.C.d O     X X X   3 0.C.C.C.C.C.C.<.1   X X X X   X s C.C.C.C.C.C.C.k O   O X X X   , <.C.C.C.C.C.C.f.8   X X X     ",
"C.C.C.C.C.C.C.d X     X X X   1 0.C.C.C.C.C.C.<.1   X   X X   X p C.C.C.C.C.C.C.k @   X         , ;.C.C.C.C.C.C.b.7       X X O ",
"C.C.C.C.C.C.C.d O   X X X     2 0.C.C.C.C.C.C.3.1   X X X X   X a C.C.N.N.C.C.C.j @ X     X X   < $.N.C.C.C.C.C.f.7   O X     X ",
"C.C.C.C.C.C.N.s X     X   X   2 0.C.C.C.C.C.C.<.1   X   o X   X p C.C.C.C.C.C.N.k +   X X X     > %.C.C.N.C.N.N.z.7   X X X X X ",
"C.C.C.C.N.N.C.f               1 u.N.N.N.C.C.C.8.1             o s C.C.C.C.C.C.C.j O             , $.C.N.N.C.C.C.N.8             ",
"<.<.<.<.2.3.p.s & % & & & & # 6 +.3.2.2.<.<.3.| 7 $ & & & & % & p 0.2.<.<.;.<.8.h & & & % & & $ 3 } 2.<.3.2.;.3.2.8 $ & % & & & ",
"$ $ $ $ $ $ O i e.e.p.p.0.u.p.C > + $ $ # # @ : B p.e.e.s.s.s.e.t + $ $ $ # # + 0 0.0.p.s.0.0.p.` > @ $ # # $ # - c e.8.p.p.e.p.",
"              t C.C.C.C.N.N.N.^ &             $ ^ C.N.C.C.C.C.C.w               9 f.C.N.C.C.C.C.| -             @ c C.C.C.C.N.C.",
"X X X X X X   y C.C.N.C.C.C.C.U &   X X X X   & W N.C.C.C.C.C.C.r   X X X X X   8 f.C.N.N.C.C.C.X.-   X X X X   # m C.C.C.C.C.C.",
"  X X   o     y C.C.N.C.C.C.N.P &   X X X X   & W C.C.C.C.C.C.C.r     X X X     9 f.C.C.C.C.C.C.X.-   X X X X   $ m C.b.C.C.C.N.",
"  X X X X X   y C.C.C.C.C.C.C.W &   X X X X   & W C.C.C.C.C.C.C.t       X X X   9 f.C.C.C.C.C.C.| -         X   # c C.C.C.C.C.C.",
"X   X   X X   y N.N.C.C.N.N.C.U &   X     X   & U N.C.C.C.C.C.b.r   X   X       9 f.C.C.C.C.C.C. .-   X X O X   $ m C.C.C.C.N.C.",
"X X X         y C.C.C.C.C.C.C.W &   X     X   % W C.C.C.C.C.C.C.r   X     o X   9 b.C.C.C.C.C.C.+.-             $ c C.C.C.C.C.C.",
"O O O O O O   y C.C.N.N.N.C.C.U - X O O O O X & U N.C.C.C.C.C.M.r X @ O O + O   9 f.C.C.C.C.C.C.X.-   + + O O X $ m C.C.C.C.C.C.",
"} ` ` ` } ^ ` s < < < < < < < 9 U ` ^ ` ` ( ( C 9 , < < < < < < p ` ` ` ^ } ` ` s 1 < < < < < < 8 B W [ ^ } ` ` ^ 0 < < < < < < ",
"C.C.C.C.C.C.b.g               < f.C.C.C.C.C.C.p.<               s b.C.C.b.C.C.C.l               : 2.C.b.C.C.b.C.C.8             ",
"C.C.C.C.C.C.C.s X         X   3 e.C.C.C.C.C.N.3.1       o   o o p C.C.C.C.C.C.C.k O   X   O X   > 2.N.C.C.C.b.C.b.5   X X o X X ",
"C.C.C.C.M.b.C.d O     X X X   3 e.C.C.C.C.C.C.<.1   o X X X o X s C.b.b.C.C.C.C.j #     X X X   < *.N.C.b.C.C.b.f.7   o     X   ",
"C.C.C.C.C.C.C.s X   X   X X   3 e.C.C.C.V.C.C.3.3   X X o o   O s C.C.C.C.M.C.C.k O X X X X     : *.C.C.C.C.C.C.M.7   X O X X X ",
"C.C.C.C.C.C.C.s O   X X X X   3 e.C.C.C.C.C.C.3.1   X X o o   O s C.C.C.C.C.C.C.j @ X     X O   < *.C.C.C.C.b.C.b.8         X O ",
"C.C.C.C.C.C.C.f X       X X   1 e.C.C.C.C.C.C.8.1   X X X X   o s C.C.C.C.C.C.C.k @     O   o   > ;.C.C.C.C.C.C.c.7     X X X   ",
"C.C.C.C.C.C.C.d               1 f.C.C.C.C.C.C.s.1               s C.C.C.C.C.C.C.l               > 3.C.C.C.C.C.C.C.7             ",
"9 9 0 0 0 9 0 p h g h f f f f s r 9 q 0 0 0 9 w s h d f f h g h y 0 0 9 9 0 9 0 y f h f f f f f f r 0 9 q 9 q 9 q s d g h f h f ",
"              y C.C.C.C.C.C.b.} #             @ } b.C.C.b.C.C.C.q               8 C.C.C.C.C.C.C.<.$               m C.z.C.C.b.C.",
"X X X     X   y C.C.C.C.C.C.C.F &   X X X X   & F C.C.C.C.C.C.b.r   O X   X X   9 C.C.C.f.b.C.b.+.>   X O O X   # b N.N.C.C.C.M.",
"X     O   X   y C.C.C.C.C.C.C.U &   X X X X   & ^ C.C.C.C.C.C.b.w   X   O X     9 s.C.b.C.C.C.C.X.-   X O o X   $ c C.C.C.C.C.C.",
"X X   X X     y N.C.N.C.C.N.C.U &   X     X   & U C.C.C.C.C.C.b.t     X         9 b.C.f.C.b.C.C.| =   O   o X   # m C.z.C.C.C.C.",
"  X X   X O   y N.C.C.C.C.C.C.U &   X     X   & U C.C.C.C.C.C.b.w   X O   X X   9 f.C.C.C.C.C.N.+.-   X O o X   $ b C.C.C.C.C.C.",
"O   O X       y C.C.C.N.N.C.C.W &   X X X X   % U C.C.C.C.C.C.b.t X   X O X     9 C.C.b.z.C.b.C.X.=   X   O X   # m C.C.C.C.C.C.",
"X X       X   y C.N.C.C.N.N.N.W &             % U b.C.C.C.C.C.C.r   X           9 f.C.C.C.C.C.C.+.=       o     @ c C.C.C.C.C.C.",
"X O X X O O   i N.C.N.N.C.N.N...& X O O O X   = } C.N.C.C.C.C.C.r X O X O X X X 0 C.C.C.C.C.C.C.3.;   X @ X X X $ U C.C.C.C.C.C.",
"h h h h h h h s r r r r r r r u h h j h h h h h y t r r t r r r y h h h j j h j s t r r t q r q y g h h h h h h j i q r r t r e ",
"C.C.N.C.C.C.C.s               < p.C.C.C.C.C.C.e.<               p C.N.C.N.N.C.C.h               - 2.C.C.C.C.C.C.C.4             ",
"C.C.N.C.C.C.C.s O   X X X X   3 8.C.f.N.C.z.N.3.3   X   X X o X a C.N.C.N.b.C.C.l O       o     , 2.C.N.C.C.C.C.z.5   O X X   X ",
"C.C.C.C.b.C.C.d X   X X X X   3 3.C.C.C.C.C.C.<.1   X     X   X p C.N.b.C.C.b.C.j O X O   X X   < &.C.C.C.C.C.C.z.8   X     X X ",
"C.C.C.C.C.C.C.s O   X X X     3 0.C.C.C.C.C.N.3.1     X X X   O a C.C.C.C.C.N.C.k O   X o X     > *.C.C.C.C.C.C.a.6   X X O   X ",
"C.C.C.C.C.C.C.d O   X X X     3 p.C.C.C.C.C.N.0.1       X     X s N.z.C.N.N.C.C.j @     X X     , *.b.N.C.C.N.C.a.8   . X X   X ",
"C.C.C.C.b.C.C.s X   X   o O   3 0.C.C.C.C.C.N.<.1   X X X X   X s C.C.C.C.N.C.N.k @   X X o X   < X.C.C.C.N.C.C.f.6   O X   O   "
};
